<svg width="159" height="103" viewBox="0 0 159 103" fill="none" xmlns="http://www.w3.org/2000/svg">
<rect x="25.2057" y="31.8169" width="113.547" height="29.2545" fill="#080066"/>
<path d="M69.7257 62.582L69.4825 62.5891L69.2414 62.6222C61.5644 63.6757 54.2899 66.3723 50.7061 71.7469C48.79 74.6205 48.1231 78.0018 48.8407 81.5759C49.5311 85.0145 51.449 88.4088 54.2786 91.7228C61.1492 99.7696 71.2385 99.203 79.2864 96.6374C87.4778 94.0262 95.2761 88.9035 99.9036 85.048C109.427 77.113 111.66 66.8093 110.585 59.7603C111.809 60.5875 113.083 61.3077 114.393 61.9269C122.09 65.5631 130.622 65.5279 136.75 64.0376C143.425 62.4142 148.881 58.0104 151.63 51.4588C154.353 44.97 154.228 36.8786 150.901 28.0089C147.513 18.9766 142.173 13.3531 136.12 10.2608C130.163 7.21756 123.916 6.82676 118.91 7.49414L118.871 7.49925L118.833 7.505C114.552 8.15005 108.473 10.4152 103.808 15.2841C99.5747 19.7031 96.7754 25.9989 97.2672 34.3222C92.158 26.1307 86.7044 17.9398 83.5695 13.8516C79.7207 8.83237 75.4125 6.17856 70.9687 5.58254C66.6011 4.99675 62.883 6.50507 60.3444 8.26223L62.8861 11.9342L60.3444 8.26223C58.38 9.62195 55.5059 11.7918 53.7355 15.0717C52.2195 17.8802 51.6875 21.153 52.5294 24.8037C49.4551 21.4756 46.1767 18.7455 43.6052 16.9389L43.4531 16.832L43.2928 16.7379C35.0673 11.9109 26.284 12.7534 19.353 16.9024C12.542 20.9796 7.45302 28.2481 5.92304 36.5765C4.37406 45.0083 6.79675 53.3603 11.204 59.7206C15.5752 66.0287 22.2896 70.9095 29.8703 71.6489C36.4402 72.2898 42.6498 71.4524 48.1135 68.0664C53.5513 64.6965 57.6721 59.1599 60.7885 51.5261C62.3411 47.7229 62.3871 43.9314 61.5759 40.3851C61.934 40.8738 62.2947 41.3648 62.6555 41.8559C63.3441 42.7933 64.0331 43.7312 64.7052 44.6545C66.9157 47.6911 68.9952 50.6386 70.6186 53.3043C72.3042 56.072 73.2262 58.1075 73.4912 59.3877C73.6884 60.341 73.5587 60.8017 73.4907 60.9756C73.4191 61.1586 73.2792 61.3698 72.9504 61.6121C72.1547 62.1986 70.7964 62.5505 69.7257 62.582ZM124.654 32.8601L124.985 32.7774L125.299 32.6463C125.657 32.4974 125.699 32.5522 125.717 32.5755C125.72 32.5787 125.722 32.5814 125.724 32.5827C125.958 32.7234 126.46 33.1928 126.953 34.2292C127.426 35.2212 127.716 36.3782 127.786 37.3714C127.829 37.995 127.775 38.3352 127.752 38.4611C127.638 38.5648 127.453 38.6345 127.085 38.5633C126.498 38.4497 125.01 37.8045 123.436 35.1072C122.943 34.2613 122.943 33.8626 122.943 33.8298C122.943 33.8297 122.943 33.8297 122.943 33.8296C122.948 33.8222 122.955 33.8117 122.965 33.798C123.04 33.6963 123.232 33.503 123.601 33.2898C123.965 33.0799 124.358 32.9341 124.654 32.8601ZM33.2849 40.1277C33.312 40.1239 33.3454 40.1207 33.3857 40.1198C33.6107 40.3584 33.8593 40.664 34.0932 41.0259C34.5852 41.7875 34.9514 42.7003 35.0118 43.7256C35.0668 44.6609 35.018 45.4824 34.8914 46.1422C34.7625 46.8139 34.5805 47.1791 34.4712 47.3376C34.4392 47.384 34.4171 47.4078 34.4072 47.4174C34.4063 47.4178 34.4052 47.4182 34.404 47.4186C34.3839 47.4258 34.0594 47.5387 33.2236 47.3716C32.6116 47.2492 32.3663 47.0474 32.2487 46.9278C32.0998 46.7764 31.9102 46.4947 31.7619 45.9714C31.4344 44.8156 31.5212 43.2165 31.8344 41.9637C32.039 41.1453 32.4871 40.565 32.8625 40.3052C33.0284 40.1903 33.1663 40.1441 33.2849 40.1277Z" fill="white" stroke="#080066" stroke-width="9.09037"/>
</svg>
