<svg width="149" height="148" viewBox="0 0 149 148" fill="none" xmlns="http://www.w3.org/2000/svg">
<rect x="1" y="0.5" width="147" height="147" rx="23.5" stroke="#BFABE4" stroke-dasharray="2 2"/>
<path d="M92.7777 114V105.111C92.7777 100.396 90.9047 95.8743 87.5708 92.5403C84.2368 89.2064 79.7149 87.3333 75 87.3333H43.8889C39.1739 87.3333 34.6521 89.2064 31.3181 92.5403C27.9841 95.8743 26.1111 100.396 26.1111 105.111V114" stroke="#BFABE4" stroke-width="8.88889" stroke-linecap="round" stroke-linejoin="round"/>
<path d="M59.4445 69.5556C69.2629 69.5556 77.2223 61.5962 77.2223 51.7778C77.2223 41.9594 69.2629 34 59.4445 34C49.6261 34 41.6667 41.9594 41.6667 51.7778C41.6667 61.5962 49.6261 69.5556 59.4445 69.5556Z" stroke="#BFABE4" stroke-width="8.88889" stroke-linecap="round" stroke-linejoin="round"/>
<path d="M110.556 56.2222V82.8889" stroke="#BFABE4" stroke-width="8.88889" stroke-linecap="round" stroke-linejoin="round"/>
<path d="M123.889 69.5555H97.2222" stroke="#BFABE4" stroke-width="8.88889" stroke-linecap="round" stroke-linejoin="round"/>
</svg>
