<svg width="35" height="47" viewBox="0 0 35 47" fill="none" xmlns="http://www.w3.org/2000/svg">
<path d="M33.0809 30.0401C33.4979 29.6067 33.6157 28.9661 33.3802 28.4127C33.1447 27.8592 32.6014 27.5 32 27.5L28.5662 27.5L28.5662 3C28.5662 2.17157 27.8947 1.5 27.0662 1.5L8.06624 1.5C7.66842 1.5 7.28689 1.65804 7.00558 1.93934C6.72428 2.22065 6.56624 2.60218 6.56624 3L6.56624 27.5L3.13249 27.5C2.53104 27.5 1.98775 27.8593 1.75225 28.4127C1.51676 28.9661 1.6346 29.6067 2.05162 30.0401L16.4854 45.0401C16.7682 45.3339 17.1584 45.5 17.5662 45.5C17.9741 45.5 18.3643 45.3339 18.6471 45.0401L33.0809 30.0401Z" fill="#FFEB3C" stroke="#461993" stroke-width="3" stroke-linejoin="round"/>
</svg>
