<svg width="332" height="332" viewBox="0 0 332 332" fill="none" xmlns="http://www.w3.org/2000/svg">
<path d="M330.037 166.222C330.037 180.58 328.155 194.875 324.439 208.743L165.75 166.222H330.037Z" fill="#96001A" stroke="url(#paint0_radial_63_3095)" stroke-width="1.95046"/>
<path d="M324.439 208.743C320.723 222.611 315.206 235.932 308.027 248.366L165.75 166.222L324.439 208.743Z" fill="#7C5BFF" stroke="url(#paint1_radial_63_3095)" stroke-width="1.95046"/>
<path d="M308.027 248.366C300.848 260.8 292.071 272.239 281.919 282.391L165.75 166.222L308.027 248.366Z" fill="#E46000" stroke="url(#paint2_radial_63_3095)" stroke-width="1.95046"/>
<path d="M281.919 282.391C271.767 292.543 260.327 301.32 247.894 308.499L165.75 166.222L281.919 282.391Z" fill="#6C37D3" stroke="url(#paint3_radial_63_3095)" stroke-width="1.95046"/>
<path d="M247.894 308.499C235.46 315.678 222.139 321.195 208.271 324.911L165.75 166.222L247.894 308.499Z" fill="#96001A" stroke="url(#paint4_radial_63_3095)" stroke-width="1.95046"/>
<path d="M208.271 324.911C194.403 328.627 180.108 330.509 165.75 330.509L165.75 166.222L208.271 324.911Z" fill="#469ABD" stroke="url(#paint5_radial_63_3095)" stroke-width="1.95046"/>
<path d="M165.75 330.509C151.393 330.509 137.098 328.627 123.23 324.911L165.75 166.222V330.509Z" fill="#E46000" stroke="url(#paint6_radial_63_3095)" stroke-width="1.95046"/>
<path d="M123.23 324.911C109.362 321.195 96.0406 315.678 83.6068 308.499L165.75 166.222L123.23 324.911Z" fill="#6C37D3" stroke="url(#paint7_radial_63_3095)" stroke-width="1.95046"/>
<path d="M83.6068 308.499C71.1731 301.32 59.734 292.543 49.5819 282.391L165.75 166.222L83.6068 308.499Z" fill="#96001A" stroke="url(#paint8_radial_63_3095)" stroke-width="1.95046"/>
<path d="M49.5819 282.391C39.4298 272.239 30.6523 260.8 23.4737 248.366L165.75 166.222L49.5819 282.391Z" fill="#27AD1B" stroke="url(#paint9_radial_63_3095)" stroke-width="1.95046"/>
<path d="M23.4737 248.366C16.295 235.932 10.7773 222.611 7.06132 208.743L165.75 166.222L23.4737 248.366Z" fill="#E46000" stroke="url(#paint10_radial_63_3095)" stroke-width="1.95046"/>
<path d="M7.06132 208.743C3.34539 194.875 1.46338 180.58 1.46338 166.222L165.75 166.222L7.06132 208.743Z" fill="#6C37D3" stroke="url(#paint11_radial_63_3095)" stroke-width="1.95046"/>
<path d="M1.46338 166.222C1.46338 151.865 3.34539 137.57 7.06132 123.702L165.75 166.222L1.46338 166.222Z" fill="#96001A" stroke="url(#paint12_radial_63_3095)" stroke-width="1.95046"/>
<path d="M7.06132 123.702C10.7772 109.834 16.295 96.5127 23.4736 84.079L165.75 166.222L7.06132 123.702Z" fill="#469ABD" stroke="url(#paint13_radial_63_3095)" stroke-width="1.95046"/>
<path d="M23.4737 84.079C30.6523 71.6452 39.4298 60.2061 49.5819 50.054L165.75 166.222L23.4737 84.079Z" fill="#E46000" stroke="url(#paint14_radial_63_3095)" stroke-width="1.95046"/>
<path d="M49.5819 50.054C59.734 39.9019 71.1731 31.1244 83.6068 23.9458L165.75 166.222L49.5819 50.054Z" fill="#96001A" stroke="url(#paint15_radial_63_3095)" stroke-width="1.95046"/>
<path d="M83.6068 23.9458C96.0406 16.7672 109.362 11.2494 123.23 7.53348L165.75 166.222L83.6068 23.9458Z" fill="#6C37D3" stroke="url(#paint16_radial_63_3095)" stroke-width="1.95046"/>
<path d="M123.23 7.53348C137.098 3.81756 151.393 1.93555 165.75 1.93555V166.222L123.23 7.53348Z" fill="#3998BE" stroke="url(#paint17_radial_63_3095)" stroke-width="1.95046"/>
<path d="M165.75 1.93555C180.108 1.93555 194.403 3.81756 208.271 7.53349L165.75 166.222V1.93555Z" fill="#E46000" stroke="url(#paint18_radial_63_3095)" stroke-width="1.95046"/>
<path d="M208.271 7.53351C222.139 11.2494 235.46 16.7672 247.894 23.9458L165.75 166.222L208.271 7.53351Z" fill="#6C37D3" stroke="url(#paint19_radial_63_3095)" stroke-width="1.95046"/>
<path d="M247.894 23.9458C260.327 31.1244 271.766 39.9019 281.919 50.054L165.75 166.222L247.894 23.9458Z" fill="#96001A" stroke="url(#paint20_radial_63_3095)" stroke-width="1.95046"/>
<path d="M281.919 50.0541C292.071 60.2062 300.848 71.6453 308.027 84.079L165.75 166.222L281.919 50.0541Z" fill="#469ABD" stroke="url(#paint21_radial_63_3095)" stroke-width="1.95046"/>
<path d="M308.027 84.079C315.206 96.5127 320.723 109.834 324.439 123.702L165.75 166.222L308.027 84.079Z" fill="#E46000" stroke="url(#paint22_radial_63_3095)" stroke-width="1.95046"/>
<path d="M324.439 123.702C328.155 137.57 330.037 151.865 330.037 166.222L165.75 166.222L324.439 123.702Z" fill="#6C37D3" stroke="url(#paint23_radial_63_3095)" stroke-width="1.95046"/>
<path d="M184.667 30.383L184.349 32.7256L186.75 33.0507L186.583 34.28L184.183 33.9548L183.866 36.2974L182.752 36.1466L183.07 33.8041L180.669 33.4789L180.835 32.2497L183.236 32.5748L183.553 30.2322L184.667 30.383ZM181.279 28.1898L180.073 28.0264L180.4 25.6142L188.854 26.7593L188.673 28.0929L181.425 27.1112L181.279 28.1898ZM182.52 18.5015L181.994 22.3864L184.302 22.699C184.108 22.5073 183.958 22.243 183.854 21.9062C183.751 21.5616 183.725 21.2076 183.774 20.8442C183.862 20.1948 184.072 19.6879 184.405 19.3236C184.739 18.9515 185.13 18.7092 185.578 18.5968C186.027 18.4765 186.488 18.4484 186.959 18.5122C187.532 18.5897 188.027 18.7709 188.445 19.0559C188.856 19.332 189.159 19.7077 189.355 20.183C189.551 20.6505 189.607 21.2012 189.521 21.8352C189.407 22.6779 189.106 23.3261 188.62 23.7798C188.133 24.2335 187.539 24.464 186.837 24.4713L187.012 23.1841C187.386 23.1483 187.702 22.9981 187.958 22.7336C188.207 22.4681 188.361 22.115 188.421 21.6744C188.495 21.1254 188.384 20.6932 188.088 20.3775C187.794 20.0542 187.372 19.8553 186.823 19.781C186.266 19.7056 185.822 19.7872 185.491 20.0257C185.152 20.2632 184.945 20.6525 184.872 21.1937C184.821 21.5725 184.874 21.9065 185.032 22.1955C185.183 22.4758 185.413 22.6959 185.722 22.8558L185.552 24.1083L180.67 23.447L181.361 18.3444L182.52 18.5015Z" fill="white"/>
<path d="M220.646 36.3227L219.733 38.5033L221.968 39.4387L221.489 40.583L219.254 39.6476L218.341 41.8283L217.305 41.3945L218.218 39.2138L215.983 38.2785L216.462 37.1342L218.697 38.0696L219.61 35.8889L220.646 36.3227ZM220.068 28.0647L218.555 31.681L220.703 32.5803C220.565 32.3448 220.489 32.0509 220.476 31.6986C220.465 31.3391 220.531 30.9902 220.673 30.652C220.926 30.0474 221.26 29.6123 221.676 29.3465C222.095 29.0735 222.535 28.9407 222.997 28.9481C223.462 28.9482 223.914 29.0402 224.353 29.2239C224.886 29.4469 225.317 29.75 225.647 30.1335C225.973 30.5067 226.169 30.9481 226.235 31.4577C226.303 31.9602 226.214 32.5064 225.967 33.0966C225.639 33.881 225.181 34.4294 224.594 34.7417C224.006 35.054 223.373 35.1229 222.693 34.9484L223.194 33.7501C223.566 33.8125 223.91 33.7492 224.226 33.5601C224.534 33.3679 224.775 33.0667 224.946 32.6565C225.16 32.1455 225.165 31.6993 224.961 31.3179C224.76 30.9293 224.404 30.628 223.893 30.4142C223.375 30.1973 222.925 30.1611 222.543 30.3057C222.154 30.4473 221.854 30.77 221.643 31.2738C221.495 31.6264 221.46 31.9628 221.538 32.2828C221.611 32.5926 221.776 32.8647 222.033 33.0992L221.545 34.265L217.001 32.3627L218.989 27.6128L220.068 28.0647Z" fill="white"/>
<path d="M248.781 59.6043L247.335 61.4744L249.252 62.9563L248.493 63.9376L246.577 62.4557L245.13 64.3258L244.242 63.6386L245.688 61.7685L243.771 60.2866L244.53 59.3053L246.447 60.7872L247.893 58.9171L248.781 59.6043ZM251.854 58.6536C251.8 57.665 251.74 56.8745 251.676 56.2821C251.61 55.6788 251.486 55.1245 251.305 54.6194C251.123 54.1142 250.854 53.7232 250.496 53.4464C250.125 53.1601 249.766 53.0252 249.418 53.042C249.074 53.0525 248.757 53.246 248.466 53.6225C248.184 53.9867 248.082 54.3612 248.159 54.7463C248.235 55.1203 248.462 55.4639 248.842 55.7769L248.054 56.7953C247.365 56.2327 246.99 55.6076 246.93 54.9201C246.869 54.2217 247.079 53.5607 247.561 52.9374C248.081 52.2646 248.672 51.8832 249.333 51.7931C249.999 51.6968 250.641 51.8872 251.258 52.3645C251.703 52.7081 252.043 53.154 252.28 53.7021C252.516 54.2393 252.675 54.7917 252.759 55.3594C252.841 55.9162 252.909 56.5999 252.963 57.4106L253.011 58.1136L255.281 55.1788L256.16 55.8589L252.681 60.3582L251.912 59.764L251.854 58.6536ZM254.492 46.135L252.094 49.2364L253.937 50.661C253.864 50.3977 253.867 50.0943 253.945 49.7505C254.028 49.4006 254.182 49.0806 254.407 48.7906C254.807 48.2721 255.243 47.9383 255.713 47.7892C256.189 47.6339 256.648 47.6196 257.093 47.7463C257.542 47.8669 257.955 48.0727 258.331 48.3638C258.788 48.717 259.126 49.1214 259.346 49.5772C259.564 50.0221 259.639 50.4991 259.57 51.0084C259.507 51.5116 259.279 52.0162 258.888 52.5222C258.368 53.195 257.784 53.6062 257.135 53.7558C256.487 53.9054 255.857 53.808 255.246 53.4635L256.041 52.4358C256.383 52.5923 256.732 52.62 257.086 52.5191C257.434 52.4134 257.744 52.1847 258.016 51.8329C258.355 51.3947 258.475 50.965 258.376 50.5438C258.283 50.1164 258.017 49.7332 257.579 49.3944C257.134 49.0508 256.709 48.8994 256.303 48.9402C255.89 48.9763 255.517 49.2103 255.183 49.6423C254.949 49.9448 254.828 50.2606 254.82 50.5897C254.811 50.9079 254.9 51.2135 255.088 51.5066L254.314 52.5064L250.417 49.4926L253.567 45.4191L254.492 46.135Z" fill="white"/>
<path d="M242.257 101.677L242.916 102.543L241.194 103.854L245.462 109.459L244.4 110.268L240.132 104.662L238.401 105.981L237.741 105.115L242.257 101.677ZM245.982 102.136C245.938 101.757 245.989 101.399 246.135 101.063C246.283 100.715 246.533 100.407 246.887 100.137L247.723 101.236L247.453 101.441C247.038 101.758 246.801 102.105 246.745 102.481C246.694 102.853 246.868 103.3 247.265 103.821L249.321 106.521L248.259 107.329L244.353 102.199L245.414 101.391L245.982 102.136ZM252.545 95.9617L255.14 105.9L254.041 106.736L253.184 103.447L247.321 99.9389L248.504 99.0386L252.924 101.85L251.446 96.7983L252.545 95.9617ZM262.565 94.3478L259.856 96.4108L260.397 98.0875L259.289 98.9311L256.673 90.6854L257.902 89.7496L265.155 94.4647L264.037 95.3154L262.565 94.3478ZM261.608 93.7087L258.266 91.5024L259.494 95.3181L261.608 93.7087ZM264.26 86.9092C264.657 86.6067 265.069 86.4203 265.496 86.3501C265.925 86.269 266.316 86.2802 266.669 86.3837L266.102 85.6389L267.173 84.8236L271.143 90.0377C271.502 90.5094 271.722 91.004 271.802 91.5215C271.887 92.0452 271.82 92.5567 271.602 93.0561C271.391 93.5507 271.024 93.9965 270.503 94.3935C269.807 94.9229 269.105 95.1979 268.395 95.2187C267.69 95.2457 267.094 95.0035 266.606 94.4921L267.658 93.691C267.942 93.8964 268.276 93.9806 268.66 93.9435C269.054 93.9078 269.435 93.7506 269.801 93.4717C270.229 93.1456 270.474 92.753 270.536 92.2937C270.605 91.8298 270.45 91.3495 270.072 90.853L269.42 89.9964C269.424 90.3755 269.335 90.767 269.152 91.171C268.971 91.5639 268.685 91.9093 268.294 92.2071C267.847 92.5474 267.352 92.7476 266.809 92.8077C266.268 92.8569 265.735 92.7625 265.211 92.5244C264.688 92.2754 264.23 91.8933 263.838 91.3781C263.446 90.8629 263.204 90.3263 263.112 89.7684C263.027 89.2057 263.085 88.6763 263.286 88.1802C263.488 87.6731 263.813 87.2495 264.26 86.9092ZM268.051 88.1994C267.782 87.8455 267.474 87.595 267.126 87.4477C266.785 87.2957 266.444 87.2413 266.104 87.2843C265.765 87.3273 265.458 87.4528 265.185 87.6608C264.912 87.8688 264.709 88.1308 264.577 88.447C264.441 88.7569 264.397 89.099 264.447 89.4731C264.498 89.8363 264.658 90.1948 264.927 90.5486C265.197 90.9025 265.505 91.1585 265.851 91.3167C266.203 91.4702 266.551 91.5285 266.896 91.4916C267.242 91.4439 267.548 91.3184 267.815 91.1151C268.088 90.9072 268.291 90.6451 268.423 90.329C268.555 90.0128 268.593 89.67 268.537 89.3006C268.483 88.9203 268.321 88.5532 268.051 88.1994ZM270.148 86.5733C269.756 86.0581 269.514 85.5215 269.423 84.9635C269.338 84.4009 269.395 83.8715 269.596 83.3754C269.798 82.8683 270.123 82.4446 270.57 82.1043C270.973 81.7971 271.386 81.6108 271.806 81.5453C272.229 81.4689 272.62 81.4801 272.979 81.5789L272.412 80.834L273.483 80.0187L277.389 85.149L276.318 85.9643L275.737 85.2008C275.741 85.58 275.65 85.9684 275.462 86.3661C275.275 86.7638 274.983 87.1139 274.585 87.4164C274.145 87.752 273.656 87.9475 273.12 88.0029C272.579 88.0521 272.046 87.9576 271.521 87.7196C270.998 87.4706 270.541 87.0885 270.148 86.5733ZM274.362 83.3945C274.092 83.0407 273.784 82.7902 273.436 82.6429C273.095 82.4909 272.755 82.4364 272.415 82.4795C272.075 82.5225 271.768 82.648 271.495 82.856C271.222 83.0639 271.02 83.326 270.888 83.6422C270.751 83.9521 270.708 84.2942 270.757 84.6683C270.808 85.0315 270.968 85.39 271.238 85.7438C271.507 86.0976 271.815 86.3536 272.161 86.5118C272.513 86.6653 272.861 86.7236 273.206 86.6868C273.552 86.639 273.859 86.5135 274.125 86.3103C274.399 86.1024 274.601 85.8403 274.733 85.5241C274.865 85.208 274.903 84.8652 274.847 84.4958C274.793 84.1154 274.631 83.7483 274.362 83.3945ZM274.9 77.8663C274.707 78.0128 274.496 78.0705 274.266 78.0394C274.037 78.0083 273.849 77.8966 273.702 77.7041C273.556 77.5117 273.498 77.3007 273.529 77.0711C273.56 76.8415 273.672 76.6534 273.864 76.5069C274.051 76.3651 274.259 76.3098 274.488 76.3409C274.718 76.372 274.906 76.4837 275.052 76.6762C275.199 76.8686 275.257 77.0796 275.225 77.3092C275.194 77.5388 275.086 77.7245 274.9 77.8663ZM275.938 78.149L279.845 83.2793L278.783 84.0875L274.877 78.9572L275.938 78.149ZM279.857 75.0332C280.26 74.726 280.684 74.5356 281.128 74.4622C281.579 74.384 282.019 74.4409 282.449 74.6328C282.88 74.8247 283.272 75.1535 283.627 75.619L285.931 78.645L284.879 79.4462L282.695 76.5784C282.346 76.1191 281.964 75.8558 281.55 75.7886C281.131 75.7152 280.723 75.8297 280.326 76.1322C279.928 76.4347 279.706 76.7999 279.66 77.2278C279.614 77.6447 279.766 78.0829 280.116 78.5422L282.3 81.41L281.238 82.2182L277.332 77.0879L278.393 76.2797L278.84 76.8663C278.853 76.5229 278.948 76.1906 279.125 75.8694C279.309 75.5435 279.553 75.2648 279.857 75.0332Z" fill="white"/>
<path d="M290.523 115.604L288.335 116.501L289.254 118.742L288.106 119.213L287.187 116.971L285 117.868L284.574 116.828L286.761 115.932L285.843 113.69L286.991 113.22L287.909 115.461L290.097 114.565L290.523 115.604ZM295.954 109.357L292.326 110.843L293.209 112.998C293.278 112.734 293.432 112.473 293.672 112.214C293.919 111.953 294.212 111.752 294.551 111.613C295.158 111.365 295.702 111.294 296.184 111.4C296.673 111.503 297.078 111.72 297.4 112.052C297.729 112.381 297.983 112.766 298.164 113.206C298.383 113.74 298.473 114.26 298.436 114.764C298.402 115.259 298.228 115.709 297.915 116.116C297.608 116.52 297.159 116.843 296.567 117.086C295.78 117.408 295.068 117.472 294.432 117.278C293.796 117.083 293.299 116.684 292.942 116.08L294.144 115.587C294.362 115.894 294.65 116.092 295.007 116.182C295.362 116.264 295.744 116.221 296.156 116.053C296.668 115.843 296.987 115.531 297.113 115.117C297.245 114.7 297.207 114.235 296.997 113.722C296.784 113.203 296.491 112.859 296.119 112.691C295.743 112.516 295.303 112.532 294.798 112.739C294.444 112.884 294.181 113.097 294.01 113.378C293.843 113.649 293.767 113.958 293.783 114.306L292.614 114.785L290.745 110.226L295.51 108.274L295.954 109.357ZM298.921 111.391C298.409 110.142 298.219 109.082 298.35 108.21C298.486 107.328 299.07 106.675 300.103 106.252C301.135 105.829 302.006 105.885 302.714 106.421C303.427 106.947 304.04 107.834 304.551 109.083C305.069 110.346 305.262 111.423 305.129 112.312C305 113.191 304.419 113.842 303.387 114.265C302.355 114.688 301.481 114.633 300.765 114.1C300.053 113.557 299.438 112.654 298.921 111.391ZM303.339 109.58C303.099 108.995 302.857 108.517 302.612 108.145C302.374 107.771 302.087 107.504 301.753 107.346C301.415 107.181 301.019 107.192 300.564 107.378C300.11 107.565 299.82 107.835 299.695 108.19C299.568 108.537 299.547 108.929 299.634 109.366C299.727 109.8 299.894 110.309 300.133 110.894C300.382 111.5 300.627 111.994 300.867 112.376C301.108 112.758 301.396 113.028 301.731 113.186C302.072 113.341 302.471 113.325 302.925 113.139C303.38 112.953 303.671 112.686 303.799 112.338C303.934 111.988 303.953 111.592 303.856 111.151C303.76 110.71 303.587 110.187 303.339 109.58Z" fill="white"/>
<path d="M301.916 149.33L299.572 149.63L299.879 152.032L298.648 152.19L298.341 149.787L295.996 150.087L295.854 148.972L298.199 148.673L297.891 146.27L299.122 146.112L299.429 148.515L301.774 148.215L301.916 149.33ZM303.158 145.49L303.004 144.283L305.418 143.974L306.5 152.436L305.165 152.607L304.238 145.352L303.158 145.49ZM307.763 147.862C307.592 146.524 307.683 145.45 308.036 144.642C308.395 143.825 309.128 143.346 310.235 143.205C311.342 143.063 312.168 143.343 312.714 144.044C313.266 144.736 313.628 145.752 313.799 147.091C313.973 148.445 313.88 149.534 313.521 150.359C313.169 151.175 312.44 151.653 311.333 151.795C310.227 151.936 309.397 151.657 308.843 150.957C308.296 150.248 307.936 149.217 307.763 147.862ZM312.499 147.257C312.419 146.63 312.309 146.105 312.168 145.683C312.036 145.259 311.828 144.928 311.546 144.689C311.262 144.442 310.877 144.35 310.389 144.412C309.902 144.474 309.552 144.661 309.34 144.971C309.127 145.273 309.006 145.647 308.976 146.091C308.954 146.534 308.983 147.069 309.063 147.696C309.146 148.346 309.255 148.887 309.389 149.318C309.522 149.749 309.73 150.085 310.013 150.324C310.303 150.562 310.692 150.65 311.179 150.588C311.667 150.525 312.017 150.343 312.23 150.04C312.451 149.737 312.572 149.359 312.593 148.908C312.614 148.457 312.582 147.907 312.499 147.257Z" fill="white"/>
<path d="M294.384 184.21L292.041 183.893L291.716 186.293L290.487 186.127L290.812 183.726L288.469 183.409L288.62 182.296L290.963 182.613L291.288 180.212L292.517 180.379L292.192 182.779L294.535 183.097L294.384 184.21ZM296.577 180.822L296.741 179.616L299.153 179.943L298.008 188.397L296.674 188.216L297.656 180.968L296.577 180.822ZM300.411 184.306C300.592 182.968 300.958 181.955 301.508 181.266C302.067 180.57 302.899 180.297 304.004 180.447C305.11 180.596 305.836 181.08 306.181 181.899C306.536 182.711 306.623 183.785 306.442 185.123C306.258 186.476 305.887 187.504 305.327 188.208C304.776 188.904 303.948 189.178 302.842 189.028C301.737 188.879 301.007 188.394 300.653 187.575C300.309 186.748 300.228 185.659 300.411 184.306ZM305.143 184.947C305.228 184.321 305.257 183.785 305.23 183.341C305.212 182.897 305.097 182.524 304.886 182.219C304.677 181.908 304.328 181.719 303.841 181.653C303.354 181.587 302.968 181.676 302.683 181.921C302.399 182.158 302.185 182.487 302.041 182.909C301.905 183.331 301.795 183.856 301.71 184.482C301.622 185.131 301.587 185.682 301.605 186.133C301.622 186.584 301.736 186.961 301.947 187.266C302.166 187.571 302.518 187.756 303.005 187.822C303.493 187.888 303.878 187.803 304.162 187.566C304.454 187.33 304.668 186.996 304.805 186.566C304.942 186.136 305.055 185.596 305.143 184.947ZM307.84 185.312C308.022 183.975 308.387 182.961 308.937 182.272C309.496 181.576 310.328 181.303 311.434 181.453C312.539 181.603 313.265 182.087 313.611 182.905C313.965 183.717 314.052 184.791 313.871 186.129C313.688 187.482 313.316 188.51 312.756 189.214C312.205 189.911 311.377 190.184 310.271 190.035C309.166 189.885 308.436 189.4 308.083 188.581C307.738 187.755 307.657 186.665 307.84 185.312ZM312.572 185.953C312.657 185.327 312.686 184.791 312.66 184.347C312.641 183.904 312.526 183.53 312.315 183.226C312.106 182.914 311.757 182.725 311.27 182.659C310.783 182.593 310.397 182.682 310.112 182.927C309.828 183.164 309.614 183.494 309.47 183.915C309.335 184.337 309.224 184.862 309.139 185.488C309.051 186.137 309.016 186.688 309.034 187.139C309.051 187.59 309.166 187.968 309.376 188.272C309.595 188.577 309.948 188.763 310.435 188.828C310.922 188.894 311.307 188.809 311.591 188.572C311.883 188.336 312.098 188.003 312.235 187.572C312.372 187.142 312.484 186.602 312.572 185.953Z" fill="white"/>
<path d="M281.878 215.499L279.697 214.586L278.762 216.821L277.617 216.342L278.553 214.107L276.372 213.194L276.806 212.158L278.987 213.071L279.922 210.836L281.066 211.315L280.131 213.55L282.311 214.463L281.878 215.499ZM283.591 218.221C284.532 217.913 285.28 217.651 285.836 217.435C286.401 217.215 286.905 216.952 287.346 216.646C287.787 216.34 288.095 215.978 288.269 215.561C288.45 215.129 288.487 214.747 288.381 214.415C288.282 214.086 288.013 213.83 287.574 213.646C287.149 213.468 286.761 213.467 286.409 213.641C286.067 213.81 285.794 214.119 285.59 214.566L284.403 214.069C284.768 213.258 285.275 212.734 285.923 212.498C286.582 212.258 287.275 212.29 288.002 212.594C288.786 212.923 289.307 213.395 289.566 214.01C289.831 214.629 289.813 215.298 289.512 216.018C289.295 216.536 288.952 216.98 288.484 217.351C288.026 217.718 287.534 218.015 287.007 218.243C286.491 218.466 285.848 218.709 285.079 218.97L284.412 219.199L287.834 220.631L287.405 221.657L282.159 219.461L282.534 218.565L283.591 218.221ZM290.131 218.18C290.652 216.935 291.268 216.051 291.977 215.527C292.697 215 293.572 214.951 294.601 215.382C295.63 215.813 296.206 216.468 296.328 217.348C296.46 218.224 296.266 219.285 295.745 220.53C295.217 221.789 294.592 222.686 293.87 223.221C293.157 223.751 292.286 223.801 291.257 223.371C290.228 222.94 289.648 222.283 289.519 221.4C289.4 220.513 289.604 219.439 290.131 218.18ZM294.536 220.024C294.78 219.441 294.946 218.931 295.036 218.495C295.133 218.062 295.118 217.671 294.994 217.323C294.872 216.967 294.584 216.695 294.131 216.505C293.677 216.315 293.281 216.302 292.943 216.464C292.607 216.62 292.315 216.882 292.067 217.252C291.826 217.625 291.584 218.103 291.34 218.686C291.087 219.291 290.911 219.813 290.811 220.253C290.711 220.694 290.724 221.088 290.849 221.436C290.981 221.788 291.273 222.058 291.727 222.248C292.18 222.438 292.575 222.455 292.911 222.299C293.253 222.147 293.547 221.881 293.79 221.5C294.034 221.12 294.282 220.628 294.536 220.024ZM297.047 221.075C297.568 219.83 298.183 218.945 298.893 218.422C299.613 217.895 300.487 217.846 301.516 218.277C302.546 218.708 303.121 219.363 303.243 220.243C303.376 221.119 303.181 222.179 302.66 223.424C302.133 224.684 301.508 225.581 300.785 226.116C300.073 226.646 299.202 226.696 298.173 226.265C297.143 225.835 296.564 225.178 296.435 224.295C296.316 223.407 296.52 222.334 297.047 221.075ZM301.451 222.918C301.695 222.335 301.862 221.826 301.951 221.39C302.048 220.957 302.034 220.566 301.909 220.218C301.787 219.862 301.5 219.589 301.046 219.4C300.593 219.21 300.197 219.196 299.858 219.359C299.522 219.514 299.231 219.777 298.983 220.147C298.742 220.52 298.5 220.998 298.256 221.581C298.003 222.185 297.826 222.708 297.727 223.148C297.627 223.588 297.639 223.983 297.764 224.331C297.896 224.682 298.189 224.953 298.642 225.143C299.096 225.332 299.49 225.35 299.826 225.194C300.169 225.042 300.462 224.775 300.706 224.395C300.95 224.015 301.198 223.523 301.451 222.918Z" fill="white"/>
<path d="M276.628 252.817L274.758 251.371L273.276 253.287L272.295 252.528L273.776 250.612L271.906 249.166L272.594 248.277L274.464 249.723L275.946 247.807L276.927 248.566L275.445 250.482L277.315 251.928L276.628 252.817ZM284.754 254.396L281.653 251.998L280.228 253.84C280.491 253.768 280.795 253.771 281.139 253.849C281.488 253.932 281.808 254.086 282.098 254.31C282.617 254.711 282.951 255.147 283.1 255.617C283.255 256.092 283.269 256.552 283.143 256.997C283.022 257.446 282.816 257.859 282.525 258.235C282.172 258.692 281.768 259.03 281.312 259.25C280.867 259.468 280.39 259.543 279.881 259.474C279.378 259.411 278.873 259.183 278.367 258.792C277.694 258.272 277.283 257.687 277.133 257.039C276.984 256.391 277.081 255.761 277.426 255.15L278.453 255.944C278.297 256.287 278.269 256.635 278.37 256.99C278.476 257.338 278.704 257.648 279.056 257.92C279.494 258.258 279.924 258.379 280.345 258.28C280.773 258.187 281.156 257.921 281.495 257.483C281.838 257.038 281.99 256.613 281.949 256.207C281.913 255.794 281.679 255.421 281.247 255.087C280.944 254.853 280.629 254.732 280.299 254.724C279.981 254.715 279.676 254.804 279.383 254.991L278.383 254.218L281.396 250.321L285.47 253.471L284.754 254.396Z" fill="white"/>
<path d="M229.753 242.474L228.887 243.134L227.576 241.411L221.971 245.679L221.162 244.618L226.768 240.35L225.449 238.618L226.315 237.959L229.753 242.474ZM229.294 246.199C229.673 246.155 230.031 246.207 230.367 246.353C230.715 246.5 231.023 246.75 231.293 247.104L230.194 247.941L229.988 247.671C229.672 247.255 229.325 247.019 228.949 246.962C228.577 246.912 228.13 247.085 227.609 247.482L224.909 249.538L224.101 248.477L229.231 244.57L230.039 245.632L229.294 246.199ZM235.468 252.762L225.53 255.357L224.694 254.259L227.983 253.401L231.491 247.538L232.391 248.721L229.58 253.142L234.632 251.663L235.468 252.762ZM237.082 262.782L235.019 260.073L233.342 260.614L232.499 259.506L240.744 256.89L241.68 258.119L236.965 265.372L236.114 264.255L237.082 262.782ZM237.721 261.825L239.927 258.483L236.112 259.712L237.721 261.825ZM244.521 264.477C244.823 264.874 245.01 265.286 245.08 265.713C245.161 266.142 245.15 266.533 245.046 266.886L245.791 266.319L246.606 267.39L241.392 271.36C240.921 271.719 240.426 271.939 239.908 272.019C239.385 272.104 238.873 272.038 238.374 271.82C237.879 271.608 237.433 271.241 237.036 270.72C236.507 270.025 236.232 269.322 236.211 268.612C236.184 267.907 236.426 267.311 236.938 266.823L237.739 267.876C237.534 268.16 237.449 268.493 237.486 268.877C237.522 269.271 237.679 269.652 237.958 270.018C238.284 270.446 238.677 270.692 239.136 270.754C239.6 270.822 240.08 270.667 240.577 270.289L241.434 269.637C241.054 269.641 240.663 269.552 240.259 269.369C239.866 269.188 239.521 268.902 239.223 268.511C238.883 268.064 238.682 267.569 238.622 267.027C238.573 266.485 238.667 265.953 238.906 265.428C239.155 264.905 239.537 264.448 240.052 264.055C240.567 263.663 241.104 263.421 241.662 263.33C242.224 263.244 242.754 263.302 243.25 263.503C243.757 263.705 244.18 264.03 244.521 264.477ZM243.231 268.269C243.584 267.999 243.835 267.691 243.982 267.343C244.134 267.002 244.189 266.662 244.146 266.322C244.103 265.982 243.977 265.675 243.769 265.402C243.561 265.129 243.299 264.927 242.983 264.795C242.673 264.658 242.331 264.615 241.957 264.664C241.594 264.715 241.235 264.875 240.881 265.145C240.527 265.414 240.271 265.722 240.113 266.068C239.96 266.42 239.901 266.768 239.938 267.113C239.986 267.459 240.112 267.766 240.315 268.032C240.523 268.306 240.785 268.508 241.101 268.64C241.417 268.772 241.76 268.81 242.129 268.754C242.51 268.7 242.877 268.538 243.231 268.269ZM244.857 270.366C245.372 269.973 245.908 269.731 246.466 269.64C247.029 269.555 247.558 269.613 248.055 269.813C248.562 270.016 248.985 270.34 249.326 270.787C249.633 271.191 249.819 271.603 249.885 272.024C249.961 272.446 249.95 272.837 249.851 273.197L250.596 272.629L251.411 273.7L246.281 277.606L245.466 276.536L246.229 275.954C245.85 275.959 245.462 275.867 245.064 275.68C244.666 275.492 244.316 275.2 244.014 274.803C243.678 274.362 243.482 273.873 243.427 273.337C243.378 272.796 243.472 272.263 243.71 271.739C243.959 271.216 244.341 270.758 244.857 270.366ZM248.035 274.579C248.389 274.31 248.64 274.001 248.787 273.654C248.939 273.312 248.994 272.972 248.95 272.632C248.907 272.292 248.782 271.986 248.574 271.713C248.366 271.439 248.104 271.237 247.788 271.105C247.478 270.968 247.136 270.925 246.762 270.974C246.398 271.025 246.04 271.186 245.686 271.455C245.332 271.724 245.076 272.032 244.918 272.378C244.765 272.73 244.706 273.079 244.743 273.423C244.791 273.769 244.916 274.076 245.12 274.343C245.328 274.616 245.59 274.818 245.906 274.95C246.222 275.082 246.565 275.12 246.934 275.065C247.315 275.01 247.682 274.848 248.035 274.579ZM253.564 275.117C253.417 274.924 253.359 274.713 253.391 274.484C253.422 274.254 253.533 274.066 253.726 273.92C253.918 273.773 254.129 273.715 254.359 273.746C254.588 273.778 254.777 273.889 254.923 274.082C255.065 274.268 255.12 274.476 255.089 274.705C255.058 274.935 254.946 275.123 254.754 275.27C254.561 275.416 254.35 275.474 254.121 275.443C253.891 275.412 253.705 275.303 253.564 275.117ZM253.281 276.156L248.151 280.062L247.342 279.001L252.473 275.094L253.281 276.156ZM256.397 280.074C256.704 280.477 256.894 280.901 256.968 281.345C257.046 281.796 256.989 282.236 256.797 282.667C256.605 283.097 256.276 283.49 255.811 283.844L252.785 286.148L251.984 285.096L254.852 282.913C255.311 282.563 255.574 282.181 255.641 281.767C255.715 281.348 255.6 280.94 255.298 280.543C254.995 280.146 254.63 279.924 254.202 279.877C253.785 279.832 253.347 279.984 252.888 280.334L250.02 282.517L249.212 281.456L254.342 277.549L255.15 278.611L254.564 279.057C254.907 279.071 255.239 279.166 255.561 279.343C255.886 279.526 256.165 279.77 256.397 280.074Z" fill="white"/>
<path d="M215.877 290.648L214.981 288.461L212.739 289.379L212.269 288.232L214.51 287.313L213.614 285.125L214.654 284.699L215.55 286.887L217.792 285.968L218.262 287.116L216.02 288.035L216.917 290.222L215.877 290.648ZM215.165 293.784C216.048 294.232 216.762 294.575 217.307 294.816C217.863 295.06 218.405 295.23 218.933 295.326C219.461 295.421 219.935 295.383 220.353 295.212C220.786 295.034 221.083 294.79 221.242 294.48C221.405 294.178 221.396 293.806 221.216 293.366C221.041 292.94 220.768 292.664 220.396 292.538C220.034 292.417 219.623 292.442 219.162 292.614L218.674 291.423C219.506 291.107 220.234 291.095 220.86 291.387C221.495 291.683 221.963 292.195 222.262 292.924C222.584 293.711 222.619 294.414 222.366 295.032C222.117 295.657 221.631 296.117 220.909 296.413C220.389 296.626 219.833 296.698 219.24 296.629C218.657 296.565 218.098 296.427 217.565 296.215C217.041 296.008 216.415 295.725 215.686 295.366L215.054 295.056L216.46 298.489L215.432 298.911L213.275 293.648L214.174 293.28L215.165 293.784ZM219.818 298.38C221.067 297.868 222.127 297.678 222.999 297.809C223.881 297.945 224.534 298.53 224.957 299.562C225.38 300.594 225.323 301.465 224.788 302.173C224.262 302.886 223.375 303.499 222.126 304.011C220.862 304.528 219.786 304.721 218.897 304.588C218.018 304.459 217.367 303.878 216.944 302.846C216.52 301.814 216.575 300.94 217.108 300.224C217.651 299.512 218.555 298.898 219.818 298.38ZM221.629 302.798C222.213 302.558 222.692 302.316 223.063 302.071C223.438 301.833 223.704 301.547 223.862 301.212C224.027 300.874 224.017 300.478 223.83 300.023C223.644 299.569 223.374 299.279 223.019 299.155C222.672 299.027 222.28 299.007 221.843 299.093C221.409 299.186 220.9 299.353 220.315 299.593C219.709 299.841 219.214 300.086 218.832 300.327C218.451 300.567 218.181 300.855 218.023 301.19C217.868 301.531 217.883 301.93 218.07 302.385C218.256 302.839 218.523 303.13 218.87 303.258C219.221 303.393 219.616 303.412 220.057 303.315C220.498 303.219 221.022 303.046 221.629 302.798Z" fill="white"/>
<path d="M183.169 309.23L182.869 306.885L180.466 307.192L180.309 305.962L182.712 305.654L182.412 303.31L183.526 303.167L183.826 305.512L186.229 305.205L186.386 306.435L183.984 306.742L184.283 309.087L183.169 309.23ZM187.009 310.472L188.216 310.317L188.525 312.732L180.062 313.814L179.892 312.479L187.147 311.551L187.009 310.472Z" fill="white"/>
<path d="M146.485 301.713L146.803 299.371L144.402 299.045L144.568 297.816L146.969 298.141L147.286 295.799L148.4 295.95L148.082 298.292L150.483 298.617L150.316 299.847L147.916 299.521L147.599 301.864L146.485 301.713ZM149.873 303.906L151.079 304.07L150.752 306.482L142.298 305.337L142.479 304.003L149.727 304.985L149.873 303.906ZM148.631 313.595L149.158 309.71L146.85 309.397C147.044 309.589 147.194 309.853 147.297 310.19C147.4 310.535 147.427 310.889 147.378 311.252C147.29 311.901 147.08 312.408 146.747 312.773C146.413 313.145 146.022 313.387 145.574 313.499C145.125 313.62 144.664 313.648 144.192 313.584C143.62 313.506 143.125 313.325 142.707 313.04C142.296 312.764 141.992 312.388 141.797 311.913C141.601 311.446 141.545 310.895 141.631 310.261C141.745 309.418 142.046 308.77 142.532 308.316C143.019 307.863 143.613 307.632 144.315 307.625L144.14 308.912C143.765 308.948 143.45 309.098 143.194 309.363C142.945 309.628 142.791 309.981 142.731 310.422C142.657 310.971 142.768 311.403 143.063 311.719C143.358 312.042 143.78 312.241 144.329 312.315C144.886 312.391 145.33 312.309 145.661 312.07C146 311.833 146.207 311.444 146.28 310.902C146.331 310.524 146.278 310.19 146.12 309.901C145.969 309.62 145.739 309.4 145.43 309.24L145.6 307.988L150.482 308.649L149.791 313.752L148.631 313.595Z" fill="white"/>
<path d="M131.19 260.527L130.186 260.107L131.022 258.11L124.523 255.389L125.039 254.159L131.537 256.879L132.378 254.871L133.382 255.291L131.19 260.527ZM127.735 261.992C127.962 262.298 128.097 262.634 128.139 262.998C128.185 263.373 128.122 263.765 127.95 264.175L126.676 263.642L126.808 263.329C127.009 262.847 127.041 262.428 126.901 262.074C126.759 261.727 126.386 261.427 125.781 261.174L122.651 259.863L123.166 258.633L129.114 261.123L128.599 262.353L127.735 261.992ZM125.138 270.62L117.922 263.311L118.455 262.037L120.842 264.457L127.673 264.564L127.099 265.935L121.865 265.71L125.672 269.346L125.138 270.62ZM117.267 277.028L118.582 273.887L117.275 272.705L117.813 271.421L124.201 277.254L123.605 278.679L114.966 278.222L115.508 276.926L117.267 277.028ZM118.416 277.103L122.413 277.343L119.442 274.652L118.416 277.103ZM119.519 284.317C119.326 284.778 119.063 285.145 118.728 285.42C118.397 285.704 118.053 285.89 117.695 285.977L118.559 286.339L118.039 287.58L111.994 285.05C111.447 284.821 111.009 284.502 110.681 284.094C110.346 283.683 110.148 283.207 110.087 282.665C110.023 282.131 110.117 281.562 110.37 280.957C110.708 280.151 111.179 279.562 111.783 279.189C112.38 278.813 113.018 278.725 113.695 278.924L113.185 280.144C112.836 280.108 112.505 280.202 112.191 280.425C111.868 280.654 111.617 280.98 111.439 281.405C111.231 281.901 111.215 282.364 111.391 282.793C111.564 283.229 111.938 283.567 112.514 283.808L113.507 284.224C113.313 283.898 113.195 283.514 113.151 283.073C113.112 282.642 113.187 282.2 113.377 281.746C113.594 281.228 113.922 280.807 114.362 280.484C114.806 280.171 115.314 279.986 115.888 279.93C116.465 279.884 117.052 279.986 117.65 280.236C118.247 280.486 118.725 280.83 119.083 281.268C119.438 281.712 119.653 282.2 119.727 282.73C119.805 283.27 119.736 283.799 119.519 284.317ZM115.59 285.096C116 285.268 116.393 285.33 116.767 285.284C117.139 285.245 117.461 285.122 117.734 284.915C118.007 284.708 118.209 284.446 118.342 284.129C118.474 283.812 118.519 283.484 118.475 283.144C118.438 282.808 118.305 282.49 118.075 282.19C117.849 281.901 117.531 281.671 117.121 281.499C116.711 281.328 116.316 281.26 115.938 281.296C115.556 281.339 115.225 281.463 114.945 281.667C114.669 281.881 114.466 282.143 114.337 282.453C114.204 282.769 114.16 283.098 114.204 283.437C114.248 283.777 114.386 284.093 114.619 284.385C114.856 284.687 115.18 284.924 115.59 285.096ZM114.587 287.553C115.185 287.803 115.662 288.146 116.02 288.584C116.376 289.029 116.59 289.516 116.664 290.046C116.743 290.586 116.674 291.115 116.457 291.634C116.261 292.101 115.997 292.469 115.665 292.736C115.338 293.013 114.994 293.199 114.633 293.293L115.496 293.655L114.977 294.896L109.029 292.406L109.548 291.165L110.433 291.536C110.24 291.209 110.125 290.827 110.089 290.389C110.052 289.951 110.13 289.501 110.323 289.041C110.537 288.53 110.862 288.116 111.299 287.8C111.743 287.487 112.252 287.302 112.825 287.246C113.403 287.2 113.99 287.303 114.587 287.553ZM112.528 292.412C112.938 292.584 113.33 292.647 113.705 292.6C114.076 292.561 114.399 292.438 114.671 292.231C114.944 292.024 115.147 291.762 115.279 291.445C115.412 291.129 115.456 290.8 115.412 290.461C115.376 290.124 115.243 289.806 115.013 289.507C114.787 289.218 114.469 288.987 114.059 288.816C113.648 288.644 113.254 288.576 112.875 288.612C112.493 288.655 112.162 288.779 111.882 288.983C111.607 289.198 111.404 289.459 111.274 289.769C111.142 290.086 111.098 290.414 111.141 290.754C111.185 291.093 111.324 291.409 111.557 291.701C111.794 292.003 112.117 292.24 112.528 292.412ZM114.826 297.469C114.919 297.246 115.073 297.09 115.288 297.002C115.502 296.914 115.721 296.917 115.944 297.01C116.167 297.104 116.323 297.258 116.41 297.472C116.498 297.687 116.496 297.905 116.402 298.128C116.312 298.344 116.159 298.496 115.945 298.584C115.731 298.672 115.512 298.669 115.289 298.576C115.066 298.482 114.91 298.328 114.822 298.114C114.734 297.9 114.736 297.685 114.826 297.469ZM113.785 297.743L107.837 295.254L108.352 294.023L114.3 296.513L113.785 297.743ZM111.95 302.401C111.754 302.869 111.482 303.245 111.134 303.531C110.783 303.824 110.373 303.995 109.904 304.044C109.436 304.093 108.931 304.005 108.392 303.779L104.883 302.31L105.394 301.09L108.719 302.482C109.251 302.705 109.714 302.742 110.106 302.593C110.505 302.447 110.801 302.144 110.994 301.684C111.187 301.223 111.196 300.796 111.023 300.402C110.854 300.018 110.503 299.715 109.97 299.492L106.645 298.1L107.161 296.869L113.109 299.359L112.594 300.59L111.913 300.305C112.074 300.609 112.158 300.944 112.165 301.311C112.169 301.685 112.097 302.048 111.95 302.401Z" fill="white"/>
<path d="M85.6636 268.233L87.1097 266.363L85.1933 264.881L85.9521 263.9L87.8685 265.382L89.3145 263.512L90.2033 264.199L88.7572 266.069L90.6736 267.551L89.9148 268.532L87.9984 267.05L86.5523 268.92L85.6636 268.233ZM87.5006 271.826L88.4635 272.571L86.9744 274.496L80.2255 269.278L81.0488 268.213L86.8349 272.687L87.5006 271.826ZM81.5815 279.596L83.9796 276.494L82.1373 275.07C82.2099 275.333 82.207 275.637 82.1286 275.98C82.0454 276.33 81.8917 276.65 81.6674 276.94C81.2665 277.459 80.8309 277.793 80.3605 277.942C79.8854 278.097 79.4256 278.111 78.9811 277.985C78.5319 277.864 78.1191 277.658 77.7426 277.367C77.2859 277.014 76.9477 276.609 76.7282 276.154C76.51 275.709 76.4351 275.232 76.5034 274.722C76.567 274.219 76.7945 273.715 77.1858 273.209C77.706 272.536 78.2903 272.125 78.9385 271.975C79.5868 271.825 80.2166 271.923 80.8279 272.267L80.0333 273.295C79.6908 273.139 79.3424 273.111 78.9882 273.212C78.6402 273.317 78.3302 273.546 78.0582 273.898C77.7193 274.336 77.5991 274.766 77.6974 275.187C77.791 275.614 78.0569 275.998 78.4951 276.336C78.9395 276.68 79.3648 276.831 79.7712 276.791C80.1837 276.755 80.557 276.521 80.8911 276.089C81.1249 275.786 81.2458 275.47 81.2538 275.141C81.2632 274.823 81.174 274.517 80.9864 274.224L81.7595 273.224L85.6571 276.238L82.5072 280.312L81.5815 279.596ZM77.9947 279.318C79.0625 280.143 79.7573 280.966 80.0791 281.787C80.4024 282.619 80.2228 283.476 79.5403 284.359C78.8579 285.242 78.0758 285.628 77.1942 285.518C76.3139 285.419 75.3399 284.957 74.2722 284.132C73.1921 283.296 72.4874 282.461 72.1579 281.624C71.8299 280.798 72.0071 279.944 72.6896 279.062C73.372 278.179 74.1565 277.789 75.0429 277.893C75.9307 278.008 76.9146 278.482 77.9947 279.318ZM75.074 283.095C75.5739 283.481 76.0229 283.774 76.421 283.974C76.8144 284.179 77.1954 284.267 77.5642 284.236C77.9391 284.211 78.2769 284.003 78.5775 283.615C78.8782 283.226 78.9938 282.847 78.9243 282.477C78.861 282.113 78.6828 281.763 78.3897 281.428C78.0918 281.099 77.6929 280.741 77.1929 280.354C76.6745 279.954 76.2155 279.648 75.816 279.438C75.4165 279.227 75.0324 279.137 74.6636 279.168C74.2901 279.205 73.953 279.417 73.6524 279.806C73.3517 280.195 73.233 280.572 73.2963 280.936C73.3548 281.307 73.5361 281.659 73.8402 281.993C74.1443 282.327 74.5555 282.694 75.074 283.095Z" fill="white"/>
<path d="M64.3008 242.27L66.1816 240.838L64.7141 238.911L65.7011 238.159L67.1686 240.086L69.0494 238.654L69.73 239.548L67.8492 240.98L69.3167 242.908L68.3298 243.659L66.8622 241.732L64.9814 243.164L64.3008 242.27ZM60.6721 249.711L63.7912 247.336L62.3804 245.483C62.3824 245.756 62.301 246.048 62.1363 246.36C61.9654 246.676 61.7341 246.946 61.4424 247.168C60.921 247.565 60.4138 247.774 59.9209 247.797C59.4217 247.824 58.9739 247.719 58.5774 247.481C58.1747 247.248 57.8292 246.943 57.5409 246.564C57.1911 246.105 56.9692 245.627 56.875 245.13C56.7794 244.643 56.8306 244.163 57.0284 243.689C57.2201 243.219 57.5704 242.791 58.0794 242.403C58.756 241.888 59.4267 241.642 60.0916 241.665C60.7565 241.689 61.3396 241.946 61.841 242.437L60.8075 243.224C60.517 242.984 60.1877 242.867 59.8195 242.873C59.456 242.885 59.0974 243.026 58.7436 243.295C58.3028 243.631 58.0755 244.014 58.0615 244.447C58.0412 244.884 58.1989 245.323 58.5345 245.763C58.8748 246.21 59.2464 246.467 59.6495 246.532C60.0573 246.604 60.4785 246.475 60.913 246.144C61.2171 245.912 61.4156 245.639 61.5085 245.323C61.5999 245.018 61.5929 244.7 61.4875 244.368L62.4931 243.602L65.4778 247.522L61.381 250.642L60.6721 249.711ZM57.2796 248.513C58.0972 249.587 58.5553 250.562 58.6537 251.439C58.7507 252.326 58.3553 253.107 57.4677 253.783C56.58 254.459 55.7246 254.63 54.9014 254.296C54.0767 253.972 53.2556 253.274 52.4379 252.2C51.6108 251.114 51.1464 250.124 51.0447 249.231C50.9415 248.348 51.3338 247.569 52.2214 246.893C53.1091 246.217 53.9676 246.044 54.797 246.374C55.6249 246.714 56.4525 247.427 57.2796 248.513ZM53.4807 251.406C53.8636 251.909 54.2215 252.308 54.5544 252.604C54.8812 252.904 55.2266 253.087 55.5906 253.153C55.9594 253.225 56.3393 253.113 56.7304 252.815C57.1214 252.517 57.3312 252.181 57.3597 251.806C57.3929 251.438 57.3113 251.054 57.1149 250.654C56.9123 250.259 56.6196 249.81 56.2367 249.308C55.8397 248.786 55.4755 248.372 55.144 248.066C54.8125 247.759 54.4648 247.573 54.1007 247.507C53.7305 247.445 53.3498 247.564 52.9587 247.861C52.5677 248.159 52.3555 248.492 52.3223 248.861C52.2829 249.234 52.3669 249.621 52.5742 250.022C52.7815 250.423 53.0837 250.885 53.4807 251.406ZM51.3148 253.055C52.1324 254.129 52.5905 255.104 52.6889 255.98C52.7859 256.868 52.3905 257.649 51.5029 258.325C50.6153 259.001 49.7598 259.172 48.9366 258.837C48.1119 258.514 47.2908 257.816 46.4731 256.742C45.646 255.656 45.1816 254.666 45.0799 253.772C44.9768 252.89 45.369 252.111 46.2566 251.435C47.1443 250.759 48.0028 250.586 48.8322 250.915C49.6601 251.256 50.4877 251.969 51.3148 253.055ZM47.5159 255.948C47.8988 256.451 48.2567 256.85 48.5896 257.145C48.9164 257.446 49.2618 257.629 49.6258 257.695C49.9946 257.767 50.3745 257.654 50.7656 257.357C51.1566 257.059 51.3664 256.723 51.3949 256.348C51.4281 255.979 51.3465 255.595 51.1501 255.196C50.9475 254.801 50.6548 254.352 50.272 253.849C49.8749 253.328 49.5107 252.914 49.1792 252.607C48.8477 252.301 48.5 252.114 48.1359 252.048C47.7657 251.987 47.385 252.105 46.9939 252.403C46.6029 252.701 46.3908 253.034 46.3575 253.403C46.3181 253.776 46.4021 254.163 46.6094 254.564C46.8167 254.965 47.1189 255.426 47.5159 255.948Z" fill="white"/>
<path d="M38.5412 217.347L40.7286 216.451L39.8099 214.209L40.9577 213.739L41.8764 215.981L44.0638 215.084L44.4899 216.124L42.3025 217.02L43.2212 219.262L42.0734 219.732L41.1547 217.49L38.9673 218.387L38.5412 217.347ZM38.3356 221.378L38.7971 222.504L36.5448 223.427L33.3094 215.533L34.5547 215.023L37.3285 221.791L38.3356 221.378ZM29.3246 225.147L32.9522 223.66L32.069 221.505C32.0002 221.769 31.846 222.031 31.6062 222.289C31.3592 222.551 31.0661 222.751 30.7268 222.89C30.1204 223.139 29.5762 223.21 29.0943 223.104C28.6052 223.001 28.1999 222.783 27.8783 222.451C27.5495 222.122 27.2949 221.738 27.1144 221.297C26.8955 220.763 26.8049 220.244 26.8426 219.739C26.8761 219.245 27.0498 218.794 27.3636 218.387C27.6703 217.983 28.1195 217.66 28.7115 217.418C29.4984 217.095 30.2099 217.031 30.8462 217.226C31.4824 217.42 31.9791 217.819 32.3363 218.423L31.1343 218.916C30.9158 218.609 30.628 218.411 30.2708 218.321C29.9166 218.239 29.5338 218.282 29.1223 218.451C28.6097 218.661 28.2908 218.973 28.1653 219.387C28.0327 219.804 28.0714 220.268 28.2814 220.781C28.4945 221.301 28.7871 221.645 29.1595 221.812C29.5347 221.987 29.975 221.971 30.4804 221.764C30.8341 221.619 31.0967 221.406 31.2682 221.125C31.4354 220.854 31.511 220.545 31.495 220.197L32.6645 219.718L34.533 224.277L29.7684 226.23L29.3246 225.147Z" fill="white"/>
<path d="M67.4352 183.397L67.2971 182.317L69.4447 182.043L68.5511 175.054L69.8745 174.885L70.768 181.873L72.9271 181.597L73.0652 182.677L67.4352 183.397ZM64.4391 181.137C64.2872 181.487 64.064 181.771 63.7695 181.99C63.4682 182.217 63.097 182.359 62.6559 182.415L62.4807 181.045L62.8174 181.002C63.3359 180.936 63.7137 180.754 63.951 180.456C64.1804 180.159 64.2536 179.686 64.1705 179.036L63.74 175.67L65.0634 175.5L65.8812 181.897L64.5579 182.066L64.4391 181.137ZM55.6684 183.202L58.3897 173.298L59.7595 173.123L58.8572 176.4L62.1806 182.37L60.7064 182.558L58.2837 177.913L57.0382 183.027L55.6684 183.202ZM46.1834 179.59L49.5614 179.158L49.931 177.435L51.3124 177.259L49.455 185.708L47.9227 185.904L43.9992 178.194L45.3922 178.016L46.1834 179.59ZM46.6929 180.622L48.4841 184.204L49.328 180.285L46.6929 180.622ZM40.9966 185.185C40.5013 185.248 40.0512 185.203 39.6463 185.05C39.2346 184.906 38.9016 184.701 38.6473 184.435L38.7661 185.364L37.4311 185.534L36.5999 179.034C36.5247 178.446 36.5818 177.907 36.771 177.419C36.9593 176.923 37.2726 176.513 37.7111 176.19C38.1418 175.867 38.6821 175.665 39.3322 175.581C40.1989 175.471 40.9449 175.584 41.57 175.921C42.1941 176.25 42.5894 176.758 42.7559 177.444L41.4441 177.612C41.301 177.292 41.054 177.052 40.7033 176.893C40.3438 176.726 39.9357 176.672 39.4791 176.731C38.9452 176.799 38.5364 177.016 38.253 177.383C37.9618 177.751 37.8557 178.244 37.9349 178.863L38.0714 179.931C38.2573 179.6 38.5303 179.306 38.8905 179.048C39.244 178.798 39.6645 178.642 40.1521 178.579C40.7093 178.508 41.2378 178.582 41.7378 178.801C42.231 179.029 42.6452 179.378 42.9804 179.846C43.3088 180.323 43.5141 180.883 43.5962 181.525C43.6783 182.167 43.6195 182.753 43.4197 183.282C43.2122 183.812 42.8974 184.242 42.4755 184.571C42.0468 184.909 41.5538 185.113 40.9966 185.185ZM38.3579 182.171C38.4143 182.612 38.5562 182.984 38.7835 183.285C39.003 183.587 39.2707 183.805 39.5865 183.937C39.9024 184.07 40.2306 184.115 40.5711 184.071C40.9116 184.027 41.218 183.902 41.4903 183.694C41.7636 183.494 41.9723 183.219 42.1165 182.871C42.2539 182.53 42.2944 182.14 42.238 181.699C42.1816 181.258 42.0432 180.882 41.8226 180.572C41.5943 180.263 41.3218 180.038 41.0049 179.898C40.6814 179.766 40.3532 179.722 40.0204 179.764C39.6799 179.808 39.3735 179.934 39.1012 180.141C38.8289 180.349 38.6245 180.627 38.4881 180.975C38.3449 181.331 38.3015 181.73 38.3579 182.171ZM35.7289 182.531C35.811 183.173 35.7522 183.759 35.5524 184.288C35.3449 184.818 35.0301 185.247 34.6082 185.577C34.1795 185.915 33.6865 186.119 33.1293 186.191C32.6263 186.255 32.1762 186.21 31.779 186.056C31.3751 185.911 31.0421 185.706 30.78 185.441L30.8988 186.37L29.5638 186.54L28.746 180.144L30.0809 179.973L30.2027 180.925C30.3885 180.595 30.662 180.304 31.0232 180.053C31.3844 179.803 31.8127 179.646 32.308 179.582C32.8574 179.512 33.3783 179.587 33.8705 179.807C34.3637 180.035 34.7779 180.384 35.1131 180.852C35.4415 181.329 35.6468 181.889 35.7289 182.531ZM30.4906 183.177C30.547 183.618 30.6889 183.99 30.9161 184.291C31.1357 184.593 31.4034 184.811 31.7192 184.943C32.0351 185.076 32.3633 185.12 32.7038 185.077C33.0443 185.033 33.3507 184.908 33.623 184.7C33.8963 184.5 34.105 184.225 34.2492 183.876C34.3866 183.536 34.4271 183.146 34.3707 182.705C34.3143 182.264 34.1759 181.888 33.9553 181.578C33.727 181.269 33.4545 181.044 33.1376 180.904C32.8141 180.772 32.4859 180.728 32.1531 180.77C31.8126 180.814 31.5062 180.94 31.2339 181.147C30.9616 181.355 30.7572 181.633 30.6208 181.981C30.4776 182.337 30.4342 182.736 30.4906 183.177ZM27.2608 187.696C27.5007 187.665 27.7123 187.721 27.8956 187.863C28.0788 188.004 28.1858 188.195 28.2165 188.435C28.2472 188.675 28.1917 188.887 28.0499 189.07C27.9082 189.253 27.7174 189.36 27.4775 189.391C27.2453 189.42 27.0376 189.364 26.8543 189.223C26.671 189.081 26.564 188.89 26.5333 188.65C26.5026 188.41 26.5582 188.199 26.6999 188.015C26.8416 187.832 27.0286 187.726 27.2608 187.696ZM26.5023 186.932L25.6845 180.536L27.0078 180.366L27.8257 186.762L26.5023 186.932ZM21.5512 187.671C21.0482 187.735 20.5859 187.688 20.1645 187.53C19.7354 187.372 19.3824 187.103 19.1055 186.721C18.8287 186.34 18.6531 185.859 18.5789 185.278L18.0965 181.506L19.4083 181.338L19.8654 184.913C19.9386 185.486 20.1377 185.905 20.4626 186.17C20.7886 186.443 21.1992 186.548 21.6944 186.485C22.1897 186.421 22.5646 186.216 22.8191 185.869C23.0669 185.53 23.1541 185.075 23.0809 184.502L22.6237 180.927L23.9471 180.758L24.7649 187.154L23.4416 187.323L23.3481 186.592C23.165 186.883 22.9165 187.123 22.6025 187.312C22.2808 187.503 21.9304 187.622 21.5512 187.671Z" fill="white"/>
<path d="M29.5539 146.909L31.8964 147.226L32.2216 144.826L33.4508 144.992L33.1257 147.393L35.4683 147.71L35.3175 148.823L32.9749 148.506L32.6498 150.907L31.4205 150.74L31.7456 148.34L29.4031 148.022L29.5539 146.909ZM27.3606 150.296L27.1972 151.503L24.7851 151.176L25.9302 142.722L27.2638 142.902L26.2821 150.15L27.3606 150.296ZM23.5265 146.813C23.3454 148.15 22.9798 149.164 22.4298 149.853C21.8711 150.549 21.0389 150.822 19.9333 150.672C18.8278 150.522 18.1021 150.038 17.7563 149.22C17.4017 148.408 17.315 147.334 17.4962 145.996C17.6794 144.643 18.0509 143.615 18.6108 142.911C19.1618 142.214 19.9901 141.941 21.0957 142.091C22.2012 142.24 22.9308 142.725 23.2843 143.544C23.629 144.37 23.7098 145.46 23.5265 146.813ZM18.795 146.172C18.7102 146.798 18.681 147.334 18.7074 147.778C18.7261 148.222 18.8408 148.595 19.0515 148.899C19.2612 149.211 19.6096 149.4 20.0967 149.466C20.5837 149.532 20.9698 149.443 21.2549 149.198C21.539 148.961 21.7528 148.632 21.8965 148.21C22.0325 147.788 22.1429 147.263 22.2277 146.637C22.3156 145.988 22.3508 145.437 22.3332 144.986C22.3156 144.535 22.2014 144.157 21.9906 143.853C21.7721 143.548 21.4194 143.363 20.9323 143.297C20.4452 143.231 20.0597 143.316 19.7756 143.553C19.4838 143.789 19.2695 144.122 19.1325 144.553C18.9955 144.983 18.883 145.523 18.795 146.172Z" fill="white"/>
<path d="M32.7802 109.693L34.9608 110.606L35.8962 108.371L37.0405 108.85L36.1051 111.085L38.2858 111.998L37.852 113.034L35.6713 112.121L34.736 114.356L33.5917 113.877L34.527 111.642L32.3464 110.729L32.7802 109.693ZM29.7849 112.398L29.315 113.52L27.0696 112.58L30.3637 104.711L31.6052 105.23L28.781 111.977L29.7849 112.398Z" fill="white"/>
<path d="M54.524 79.2792L56.3941 80.7252L57.8759 78.8088L58.8573 79.5677L57.3754 81.484L59.2455 82.9301L58.5582 83.8189L56.6882 82.3728L55.2063 84.2892L54.225 83.5303L55.7068 81.614L53.8368 80.1679L54.524 79.2792ZM46.3978 77.6998L49.4992 80.0979L50.9238 78.2556C50.6605 78.3282 50.357 78.3253 50.0133 78.2469C49.6634 78.1637 49.3434 78.01 49.0534 77.7857C48.5349 77.3848 48.2011 76.9492 48.052 76.4788C47.8967 76.0037 47.8824 75.5439 48.0091 75.0995C48.1297 74.6502 48.3355 74.2374 48.6266 73.8609C48.9798 73.4042 49.3842 73.066 49.84 72.8465C50.2849 72.6283 50.7619 72.5534 51.2712 72.6218C51.7743 72.6853 52.279 72.9128 52.785 73.3042C53.4578 73.8244 53.869 74.4086 54.0186 75.0569C54.1682 75.7051 54.0708 76.3349 53.7263 76.9463L52.6986 76.1516C52.8551 75.8091 52.8828 75.4607 52.7819 75.1065C52.6762 74.7585 52.4475 74.4485 52.0957 74.1765C51.6575 73.8376 51.2278 73.7174 50.8066 73.8158C50.3792 73.9093 49.996 74.1752 49.6572 74.6134C49.3136 75.0578 49.1622 75.4832 49.203 75.8895C49.2391 76.302 49.4731 76.6753 49.9051 77.0094C50.2076 77.2432 50.5234 77.3641 50.8525 77.3721C51.1707 77.3815 51.4763 77.2923 51.7694 77.1047L52.7692 77.8779L49.7554 81.7754L45.6819 78.6256L46.3978 77.6998Z" fill="white"/>
<path d="M85.1617 59.2676L86.5938 61.1484L88.5211 59.6808L89.2726 60.6678L87.3453 62.1353L88.7773 64.0161L87.8835 64.6967L86.4514 62.8159L84.5241 64.2834L83.7726 63.2965L85.6999 61.829L84.2678 59.9482L85.1617 59.2676ZM77.7212 55.6388L80.0962 58.7579L81.949 57.3471C81.676 57.3491 81.3836 57.2677 81.0719 57.103C80.7554 56.9321 80.4861 56.7008 80.264 56.4091C79.867 55.8877 79.6573 55.3805 79.635 54.8876C79.608 54.3884 79.7132 53.9406 79.9506 53.5441C80.1833 53.1414 80.4889 52.7959 80.8676 52.5076C81.3269 52.1578 81.8051 51.9359 82.3022 51.8418C82.7884 51.7462 83.2686 51.7973 83.7428 51.9951C84.2123 52.1868 84.6409 52.5371 85.0284 53.0461C85.5436 53.7227 85.7896 54.3934 85.7663 55.0583C85.7431 55.7232 85.4859 56.3063 84.9949 56.8077L84.208 55.7742C84.4477 55.4838 84.5647 55.1544 84.5589 54.7862C84.5469 54.4227 84.4062 54.0641 84.1368 53.7103C83.8012 53.2696 83.4173 53.0422 82.9849 53.0282C82.5479 53.0079 82.109 53.1656 81.6683 53.5012C81.2214 53.8415 80.965 54.2132 80.8993 54.6162C80.8274 55.024 80.9568 55.4452 81.2877 55.8797C81.5193 56.1838 81.793 56.3824 82.1089 56.4752C82.4138 56.5666 82.7321 56.5597 83.0637 56.4543L83.8294 57.4598L79.9095 60.4445L76.7901 56.3477L77.7212 55.6388ZM73.1933 49.6922L75.5683 52.8113L77.4211 51.4005C77.1481 51.4025 76.8557 51.3211 76.544 51.1564C76.2275 50.9855 75.9582 50.7542 75.7361 50.4625C75.3391 49.9411 75.1294 49.4339 75.1071 48.941C75.0801 48.4418 75.1853 47.994 75.4227 47.5975C75.6554 47.1948 75.961 46.8493 76.3397 46.561C76.799 46.2112 77.2772 45.9893 77.7743 45.8952C78.2605 45.7996 78.7407 45.8507 79.2149 46.0485C79.6844 46.2402 80.113 46.5905 80.5005 47.0995C81.0157 47.7761 81.2617 48.4468 81.2384 49.1117C81.2152 49.7766 80.958 50.3597 80.467 50.8611L79.6801 49.8276C79.9198 49.5372 80.0368 49.2078 80.031 48.8396C80.019 48.4761 79.8783 48.1175 79.6089 47.7637C79.2733 47.323 78.8894 47.0956 78.457 47.0816C78.02 47.0613 77.5811 47.219 77.1404 47.5546C76.6935 47.8949 76.4371 48.2666 76.3714 48.6696C76.2995 49.0774 76.4289 49.4986 76.7598 49.9331C76.9914 50.2372 77.2651 50.4357 77.581 50.5286C77.8859 50.62 78.2042 50.613 78.5358 50.5076L79.3015 51.5132L75.3816 54.4979L72.2622 50.4011L73.1933 49.6922Z" fill="white"/>
<path d="M122.974 74.6605L123.982 74.2478L124.803 76.2511L131.321 73.5793L131.827 74.8138L125.309 77.4855L126.134 79.4996L125.127 79.9124L122.974 74.6605ZM124.382 71.1817C124.005 71.1255 123.672 70.9835 123.385 70.7555C123.087 70.5234 122.854 70.2015 122.686 69.79L123.963 69.2663L124.092 69.5804C124.29 70.064 124.564 70.3819 124.913 70.534C125.259 70.6788 125.735 70.627 126.342 70.3784L129.482 69.0914L129.988 70.3258L124.021 72.7713L123.515 71.5368L124.382 71.1817ZM120.117 63.2444L130.388 63.3096L130.912 64.5873L127.513 64.564L122.607 69.3192L122.043 67.944L125.903 64.4016L120.64 64.5222L120.117 63.2444ZM121.151 53.1476L122.443 56.2987L124.202 56.2099L124.731 57.4985L116.089 57.8911L115.503 56.4618L121.935 50.6765L122.467 51.9759L121.151 53.1476ZM120.286 53.9068L117.29 56.564L121.294 56.3649L120.286 53.9068ZM114.405 49.5856C114.215 49.1236 114.142 48.6772 114.185 48.2466C114.217 47.8116 114.329 47.4369 114.521 47.1223L113.655 47.4774L113.144 46.2321L119.208 43.7467C119.757 43.5219 120.291 43.4377 120.812 43.4941C121.34 43.5476 121.817 43.7442 122.243 44.084C122.666 44.4165 123.001 44.886 123.25 45.4924C123.581 46.3009 123.665 47.0507 123.501 47.7417C123.345 48.4298 122.957 48.9431 122.337 49.2815L121.835 48.0579C122.107 47.8368 122.275 47.5362 122.338 47.1561C122.406 46.7658 122.352 46.3577 122.178 45.9318C121.974 45.4337 121.658 45.0951 121.23 44.9162C120.8 44.7301 120.296 44.7553 119.719 44.992L118.722 45.4003C119.09 45.4943 119.445 45.6818 119.788 45.9629C120.12 46.2397 120.38 46.6055 120.566 47.0603C120.779 47.5801 120.845 48.1098 120.762 48.6494C120.67 49.1848 120.441 49.675 120.075 50.12C119.699 50.5607 119.212 50.9039 118.612 51.1494C118.013 51.395 117.432 51.4898 116.87 51.4337C116.304 51.3704 115.808 51.1775 115.38 50.8552C114.943 50.5285 114.618 50.1054 114.405 49.5856ZM116.632 46.2569C116.221 46.4255 115.899 46.6586 115.667 46.9562C115.432 47.2465 115.291 47.5613 115.245 47.9007C115.198 48.2402 115.24 48.5687 115.37 48.8863C115.5 49.204 115.701 49.4674 115.972 49.6766C116.236 49.8888 116.556 50.0194 116.93 50.0684C117.294 50.1131 117.682 50.0512 118.093 49.8825C118.505 49.7139 118.831 49.4829 119.074 49.1896C119.313 48.8892 119.46 48.5677 119.513 48.2254C119.557 47.8787 119.515 47.5502 119.388 47.2398C119.257 46.9221 119.057 46.6587 118.786 46.4495C118.514 46.2402 118.193 46.1147 117.822 46.073C117.44 46.0269 117.044 46.0882 116.632 46.2569ZM115.604 43.8106C115.005 44.0561 114.424 44.1509 113.862 44.0948C113.296 44.0315 112.8 43.8387 112.373 43.5163C111.935 43.1897 111.61 42.7665 111.397 42.2467C111.205 41.7775 111.131 41.3311 111.177 40.9077C111.212 40.48 111.324 40.1052 111.513 39.7835L110.647 40.1385L110.136 38.8932L116.103 36.4478L116.613 37.6931L115.725 38.057C116.093 38.151 116.444 38.34 116.78 38.624C117.115 38.908 117.378 39.281 117.567 39.7431C117.777 40.2556 117.84 40.7781 117.754 41.3105C117.662 41.8459 117.433 42.3361 117.067 42.7811C116.691 43.2218 116.204 43.565 115.604 43.8106ZM113.625 38.918C113.213 39.0867 112.891 39.3198 112.659 39.6173C112.424 39.9076 112.283 40.2225 112.237 40.5619C112.19 40.9013 112.232 41.2298 112.362 41.5474C112.493 41.8651 112.693 42.1285 112.965 42.3377C113.229 42.5499 113.548 42.6805 113.922 42.7295C114.286 42.7742 114.674 42.7123 115.085 42.5436C115.497 42.375 115.824 42.144 116.066 41.8508C116.305 41.5503 116.452 41.2289 116.505 40.8865C116.549 40.5398 116.507 40.2113 116.38 39.9009C116.25 39.5833 116.049 39.3198 115.778 39.1106C115.506 38.9014 115.185 38.7759 114.814 38.7341C114.432 38.6881 114.036 38.7494 113.625 38.918ZM108.424 36.9678C108.516 37.1915 108.517 37.4103 108.427 37.624C108.338 37.8378 108.181 37.9905 107.957 38.0822C107.734 38.1739 107.515 38.1751 107.301 38.0856C107.087 37.9961 106.935 37.8395 106.843 37.6157C106.754 37.3991 106.754 37.184 106.844 36.9703C106.933 36.7565 107.09 36.6038 107.314 36.5121C107.538 36.4204 107.756 36.4192 107.97 36.5087C108.184 36.5982 108.335 36.7512 108.424 36.9678ZM108.966 36.0374L114.932 33.592L115.438 34.8264L109.472 37.2718L108.966 36.0374ZM106.97 31.4463C106.778 30.977 106.704 30.5184 106.748 30.0703C106.789 29.615 106.958 29.2043 107.255 28.8381C107.551 28.472 107.971 28.1779 108.512 27.956L112.031 26.5136L112.533 27.7373L109.198 29.1042C108.663 29.3232 108.31 29.6239 108.138 30.0064C107.959 30.3918 107.964 30.8156 108.153 31.2776C108.343 31.7396 108.638 32.0486 109.039 32.2046C109.43 32.3563 109.893 32.3227 110.427 32.1037L113.762 30.7368L114.268 31.9712L108.302 34.4166L107.796 33.1822L108.478 32.9026C108.149 32.8011 107.853 32.6232 107.589 32.369C107.321 32.1076 107.115 31.8 106.97 31.4463Z" fill="white"/>
<path d="M147.983 22.8659L148.283 25.2108L150.686 24.9036L150.843 26.134L148.44 26.4413L148.74 28.7861L147.625 28.9286L147.326 26.5838L144.923 26.891L144.765 25.6605L147.168 25.3533L146.868 23.0084L147.983 22.8659ZM144.143 21.6242L142.936 21.7785L142.627 19.364L151.089 18.282L151.26 19.6169L144.005 20.5446L144.143 21.6242Z" fill="white"/>
<defs>
<radialGradient id="paint0_radial_63_3095" cx="0" cy="0" r="1" gradientUnits="userSpaceOnUse" gradientTransform="translate(165.75 166.222) rotate(90) scale(164.287)">
<stop stop-color="#FFBD14"/>
<stop offset="0.246666" stop-color="#FFEB3C"/>
<stop offset="0.466666" stop-color="#E46000"/>
<stop offset="0.711666" stop-color="#FF730E"/>
<stop offset="1" stop-color="#FFE600"/>
</radialGradient>
<radialGradient id="paint1_radial_63_3095" cx="0" cy="0" r="1" gradientUnits="userSpaceOnUse" gradientTransform="translate(165.75 166.222) rotate(90) scale(164.287)">
<stop stop-color="#FFBD14"/>
<stop offset="0.246666" stop-color="#FFEB3C"/>
<stop offset="0.466666" stop-color="#E46000"/>
<stop offset="0.711666" stop-color="#FF730E"/>
<stop offset="1" stop-color="#FFE600"/>
</radialGradient>
<radialGradient id="paint2_radial_63_3095" cx="0" cy="0" r="1" gradientUnits="userSpaceOnUse" gradientTransform="translate(165.75 166.222) rotate(90) scale(164.287)">
<stop stop-color="#FFBD14"/>
<stop offset="0.246666" stop-color="#FFEB3C"/>
<stop offset="0.466666" stop-color="#E46000"/>
<stop offset="0.711666" stop-color="#FF730E"/>
<stop offset="1" stop-color="#FFE600"/>
</radialGradient>
<radialGradient id="paint3_radial_63_3095" cx="0" cy="0" r="1" gradientUnits="userSpaceOnUse" gradientTransform="translate(165.75 166.222) rotate(90) scale(164.287)">
<stop stop-color="#FFBD14"/>
<stop offset="0.246666" stop-color="#FFEB3C"/>
<stop offset="0.466666" stop-color="#E46000"/>
<stop offset="0.711666" stop-color="#FF730E"/>
<stop offset="1" stop-color="#FFE600"/>
</radialGradient>
<radialGradient id="paint4_radial_63_3095" cx="0" cy="0" r="1" gradientUnits="userSpaceOnUse" gradientTransform="translate(165.75 166.222) rotate(90) scale(164.287)">
<stop stop-color="#FFBD14"/>
<stop offset="0.246666" stop-color="#FFEB3C"/>
<stop offset="0.466666" stop-color="#E46000"/>
<stop offset="0.711666" stop-color="#FF730E"/>
<stop offset="1" stop-color="#FFE600"/>
</radialGradient>
<radialGradient id="paint5_radial_63_3095" cx="0" cy="0" r="1" gradientUnits="userSpaceOnUse" gradientTransform="translate(165.75 166.222) rotate(90) scale(164.287)">
<stop stop-color="#FFBD14"/>
<stop offset="0.246666" stop-color="#FFEB3C"/>
<stop offset="0.466666" stop-color="#E46000"/>
<stop offset="0.711666" stop-color="#FF730E"/>
<stop offset="1" stop-color="#FFE600"/>
</radialGradient>
<radialGradient id="paint6_radial_63_3095" cx="0" cy="0" r="1" gradientUnits="userSpaceOnUse" gradientTransform="translate(165.75 166.222) rotate(90) scale(164.287)">
<stop stop-color="#FFBD14"/>
<stop offset="0.246666" stop-color="#FFEB3C"/>
<stop offset="0.466666" stop-color="#E46000"/>
<stop offset="0.711666" stop-color="#FF730E"/>
<stop offset="1" stop-color="#FFE600"/>
</radialGradient>
<radialGradient id="paint7_radial_63_3095" cx="0" cy="0" r="1" gradientUnits="userSpaceOnUse" gradientTransform="translate(165.75 166.222) rotate(90) scale(164.287)">
<stop stop-color="#FFBD14"/>
<stop offset="0.246666" stop-color="#FFEB3C"/>
<stop offset="0.466666" stop-color="#E46000"/>
<stop offset="0.711666" stop-color="#FF730E"/>
<stop offset="1" stop-color="#FFE600"/>
</radialGradient>
<radialGradient id="paint8_radial_63_3095" cx="0" cy="0" r="1" gradientUnits="userSpaceOnUse" gradientTransform="translate(165.75 166.222) rotate(90) scale(164.287)">
<stop stop-color="#FFBD14"/>
<stop offset="0.246666" stop-color="#FFEB3C"/>
<stop offset="0.466666" stop-color="#E46000"/>
<stop offset="0.711666" stop-color="#FF730E"/>
<stop offset="1" stop-color="#FFE600"/>
</radialGradient>
<radialGradient id="paint9_radial_63_3095" cx="0" cy="0" r="1" gradientUnits="userSpaceOnUse" gradientTransform="translate(165.75 166.222) rotate(90) scale(164.287)">
<stop stop-color="#FFBD14"/>
<stop offset="0.246666" stop-color="#FFEB3C"/>
<stop offset="0.466666" stop-color="#E46000"/>
<stop offset="0.711666" stop-color="#FF730E"/>
<stop offset="1" stop-color="#FFE600"/>
</radialGradient>
<radialGradient id="paint10_radial_63_3095" cx="0" cy="0" r="1" gradientUnits="userSpaceOnUse" gradientTransform="translate(165.75 166.222) rotate(90) scale(164.287)">
<stop stop-color="#FFBD14"/>
<stop offset="0.246666" stop-color="#FFEB3C"/>
<stop offset="0.466666" stop-color="#E46000"/>
<stop offset="0.711666" stop-color="#FF730E"/>
<stop offset="1" stop-color="#FFE600"/>
</radialGradient>
<radialGradient id="paint11_radial_63_3095" cx="0" cy="0" r="1" gradientUnits="userSpaceOnUse" gradientTransform="translate(165.75 166.222) rotate(90) scale(164.287)">
<stop stop-color="#FFBD14"/>
<stop offset="0.246666" stop-color="#FFEB3C"/>
<stop offset="0.466666" stop-color="#E46000"/>
<stop offset="0.711666" stop-color="#FF730E"/>
<stop offset="1" stop-color="#FFE600"/>
</radialGradient>
<radialGradient id="paint12_radial_63_3095" cx="0" cy="0" r="1" gradientUnits="userSpaceOnUse" gradientTransform="translate(165.75 166.222) rotate(90) scale(164.287)">
<stop stop-color="#FFBD14"/>
<stop offset="0.246666" stop-color="#FFEB3C"/>
<stop offset="0.466666" stop-color="#E46000"/>
<stop offset="0.711666" stop-color="#FF730E"/>
<stop offset="1" stop-color="#FFE600"/>
</radialGradient>
<radialGradient id="paint13_radial_63_3095" cx="0" cy="0" r="1" gradientUnits="userSpaceOnUse" gradientTransform="translate(165.75 166.222) rotate(90) scale(164.287)">
<stop stop-color="#FFBD14"/>
<stop offset="0.246666" stop-color="#FFEB3C"/>
<stop offset="0.466666" stop-color="#E46000"/>
<stop offset="0.711666" stop-color="#FF730E"/>
<stop offset="1" stop-color="#FFE600"/>
</radialGradient>
<radialGradient id="paint14_radial_63_3095" cx="0" cy="0" r="1" gradientUnits="userSpaceOnUse" gradientTransform="translate(165.75 166.222) rotate(90) scale(164.287)">
<stop stop-color="#FFBD14"/>
<stop offset="0.246666" stop-color="#FFEB3C"/>
<stop offset="0.466666" stop-color="#E46000"/>
<stop offset="0.711666" stop-color="#FF730E"/>
<stop offset="1" stop-color="#FFE600"/>
</radialGradient>
<radialGradient id="paint15_radial_63_3095" cx="0" cy="0" r="1" gradientUnits="userSpaceOnUse" gradientTransform="translate(165.75 166.222) rotate(90) scale(164.287)">
<stop stop-color="#FFBD14"/>
<stop offset="0.246666" stop-color="#FFEB3C"/>
<stop offset="0.466666" stop-color="#E46000"/>
<stop offset="0.711666" stop-color="#FF730E"/>
<stop offset="1" stop-color="#FFE600"/>
</radialGradient>
<radialGradient id="paint16_radial_63_3095" cx="0" cy="0" r="1" gradientUnits="userSpaceOnUse" gradientTransform="translate(165.75 166.222) rotate(90) scale(164.287)">
<stop stop-color="#FFBD14"/>
<stop offset="0.246666" stop-color="#FFEB3C"/>
<stop offset="0.466666" stop-color="#E46000"/>
<stop offset="0.711666" stop-color="#FF730E"/>
<stop offset="1" stop-color="#FFE600"/>
</radialGradient>
<radialGradient id="paint17_radial_63_3095" cx="0" cy="0" r="1" gradientUnits="userSpaceOnUse" gradientTransform="translate(165.75 166.222) rotate(90) scale(164.287)">
<stop stop-color="#FFBD14"/>
<stop offset="0.246666" stop-color="#FFEB3C"/>
<stop offset="0.466666" stop-color="#E46000"/>
<stop offset="0.711666" stop-color="#FF730E"/>
<stop offset="1" stop-color="#FFE600"/>
</radialGradient>
<radialGradient id="paint18_radial_63_3095" cx="0" cy="0" r="1" gradientUnits="userSpaceOnUse" gradientTransform="translate(165.75 166.222) rotate(90) scale(164.287)">
<stop stop-color="#FFBD14"/>
<stop offset="0.246666" stop-color="#FFEB3C"/>
<stop offset="0.466666" stop-color="#E46000"/>
<stop offset="0.711666" stop-color="#FF730E"/>
<stop offset="1" stop-color="#FFE600"/>
</radialGradient>
<radialGradient id="paint19_radial_63_3095" cx="0" cy="0" r="1" gradientUnits="userSpaceOnUse" gradientTransform="translate(165.75 166.222) rotate(90) scale(164.287)">
<stop stop-color="#FFBD14"/>
<stop offset="0.246666" stop-color="#FFEB3C"/>
<stop offset="0.466666" stop-color="#E46000"/>
<stop offset="0.711666" stop-color="#FF730E"/>
<stop offset="1" stop-color="#FFE600"/>
</radialGradient>
<radialGradient id="paint20_radial_63_3095" cx="0" cy="0" r="1" gradientUnits="userSpaceOnUse" gradientTransform="translate(165.75 166.222) rotate(90) scale(164.287)">
<stop stop-color="#FFBD14"/>
<stop offset="0.246666" stop-color="#FFEB3C"/>
<stop offset="0.466666" stop-color="#E46000"/>
<stop offset="0.711666" stop-color="#FF730E"/>
<stop offset="1" stop-color="#FFE600"/>
</radialGradient>
<radialGradient id="paint21_radial_63_3095" cx="0" cy="0" r="1" gradientUnits="userSpaceOnUse" gradientTransform="translate(165.75 166.222) rotate(90) scale(164.287)">
<stop stop-color="#FFBD14"/>
<stop offset="0.246666" stop-color="#FFEB3C"/>
<stop offset="0.466666" stop-color="#E46000"/>
<stop offset="0.711666" stop-color="#FF730E"/>
<stop offset="1" stop-color="#FFE600"/>
</radialGradient>
<radialGradient id="paint22_radial_63_3095" cx="0" cy="0" r="1" gradientUnits="userSpaceOnUse" gradientTransform="translate(165.75 166.222) rotate(90) scale(164.287)">
<stop stop-color="#FFBD14"/>
<stop offset="0.246666" stop-color="#FFEB3C"/>
<stop offset="0.466666" stop-color="#E46000"/>
<stop offset="0.711666" stop-color="#FF730E"/>
<stop offset="1" stop-color="#FFE600"/>
</radialGradient>
<radialGradient id="paint23_radial_63_3095" cx="0" cy="0" r="1" gradientUnits="userSpaceOnUse" gradientTransform="translate(165.75 166.222) rotate(90) scale(164.287)">
<stop stop-color="#FFBD14"/>
<stop offset="0.246666" stop-color="#FFEB3C"/>
<stop offset="0.466666" stop-color="#E46000"/>
<stop offset="0.711666" stop-color="#FF730E"/>
<stop offset="1" stop-color="#FFE600"/>
</radialGradient>
</defs>
</svg>
