<svg width="56" height="56" viewBox="0 0 56 56" fill="none" xmlns="http://www.w3.org/2000/svg">
<rect width="56" height="56" rx="8" fill="url(#paint0_linear_66_4779)"/>
<rect x="3" y="3" width="50" height="50" rx="5" fill="url(#paint1_linear_66_4779)" stroke="url(#paint2_linear_66_4779)" stroke-width="2"/>
<g style="mix-blend-mode:overlay">
<rect x="5" y="5" width="46" height="19" rx="3" fill="url(#paint3_linear_66_4779)"/>
</g>
<g style="mix-blend-mode:overlay">
<rect x="5" y="5" width="46" height="19" rx="3" fill="url(#paint4_linear_66_4779)"/>
</g>
<g style="mix-blend-mode:overlay">
<rect width="46" height="8" rx="3" transform="matrix(1 0 0 -1 5 51)" fill="url(#paint5_linear_66_4779)"/>
</g>
<mask id="path-6-inside-1_66_4779" fill="white">
<path d="M36.0374 13.8287C38.6106 15.3144 40.2946 17.168 41.0894 19.3895C41.8842 21.6111 41.5729 23.9494 40.1554 26.4046C38.9151 28.5529 37.2137 29.8369 35.0513 30.2566C32.9125 30.69 30.6609 30.2557 28.2965 28.9536L26.6271 31.4363L20.501 27.8994L24.357 20.73L26.9065 22.202C28.5118 23.1288 29.8416 23.6605 30.8959 23.7971C31.9639 23.91 32.7704 23.4944 33.3156 22.5501C33.6836 21.9127 33.7928 21.3147 33.6431 20.7562C33.5307 20.1876 33.1794 19.733 32.5892 19.3923C31.9282 19.0106 31.3048 18.9183 30.719 19.1151C30.1704 19.302 29.7053 19.726 29.3237 20.387L22.7727 16.6048C23.5569 15.1375 24.6084 13.9976 25.9273 13.1853C27.2834 12.3629 28.8201 11.9911 30.5373 12.0697C32.2682 12.1248 34.1016 12.7111 36.0374 13.8287ZM17.954 39.5074C16.7264 38.7986 15.9258 37.8957 15.552 36.7985C15.2154 35.6914 15.347 34.6185 15.9467 33.5798C16.5464 32.541 17.4098 31.8906 18.5368 31.6285C19.6875 31.3801 20.8767 31.6102 22.1042 32.319C23.3082 33.0141 24.0785 33.9152 24.415 35.0223C24.7752 36.1431 24.6554 37.2228 24.0557 38.2615C23.4697 39.2766 22.6013 39.9084 21.4506 40.1569C20.3235 40.419 19.158 40.2025 17.954 39.5074Z"/>
</mask>
<g filter="url(#filter0_i_66_4779)">
<path d="M36.0374 13.8287C38.6106 15.3144 40.2946 17.168 41.0894 19.3895C41.8842 21.6111 41.5729 23.9494 40.1554 26.4046C38.9151 28.5529 37.2137 29.8369 35.0513 30.2566C32.9125 30.69 30.6609 30.2557 28.2965 28.9536L26.6271 31.4363L20.501 27.8994L24.357 20.73L26.9065 22.202C28.5118 23.1288 29.8416 23.6605 30.8959 23.7971C31.9639 23.91 32.7704 23.4944 33.3156 22.5501C33.6836 21.9127 33.7928 21.3147 33.6431 20.7562C33.5307 20.1876 33.1794 19.733 32.5892 19.3923C31.9282 19.0106 31.3048 18.9183 30.719 19.1151C30.1704 19.302 29.7053 19.726 29.3237 20.387L22.7727 16.6048C23.5569 15.1375 24.6084 13.9976 25.9273 13.1853C27.2834 12.3629 28.8201 11.9911 30.5373 12.0697C32.2682 12.1248 34.1016 12.7111 36.0374 13.8287ZM17.954 39.5074C16.7264 38.7986 15.9258 37.8957 15.552 36.7985C15.2154 35.6914 15.347 34.6185 15.9467 33.5798C16.5464 32.541 17.4098 31.8906 18.5368 31.6285C19.6875 31.3801 20.8767 31.6102 22.1042 32.319C23.3082 33.0141 24.0785 33.9152 24.415 35.0223C24.7752 36.1431 24.6554 37.2228 24.0557 38.2615C23.4697 39.2766 22.6013 39.9084 21.4506 40.1569C20.3235 40.419 19.158 40.2025 17.954 39.5074Z" fill="url(#paint6_linear_66_4779)"/>
</g>
<path d="M35.0513 30.2566L34.8607 29.2749L34.8527 29.2766L35.0513 30.2566ZM28.2965 28.9536L28.779 28.0776L27.9774 27.6362L27.4667 28.3956L28.2965 28.9536ZM26.6271 31.4363L26.1271 32.3024L26.9358 32.7693L27.4569 31.9943L26.6271 31.4363ZM20.501 27.8994L19.6203 27.4258L19.1607 28.2803L20.001 28.7655L20.501 27.8994ZM24.357 20.73L24.857 19.864L23.9644 19.3487L23.4763 20.2564L24.357 20.73ZM30.8959 23.7971L30.7675 24.7888L30.7791 24.7903L30.7907 24.7915L30.8959 23.7971ZM33.6431 20.7562L32.6621 20.9502L32.6686 20.9828L32.6772 21.015L33.6431 20.7562ZM30.719 19.1151L30.4004 18.1672L30.3965 18.1686L30.719 19.1151ZM29.3237 20.387L28.8237 21.253L29.6897 21.753L30.1897 20.887L29.3237 20.387ZM22.7727 16.6048L21.8907 16.1334L21.4346 16.9869L22.2727 17.4708L22.7727 16.6048ZM25.9273 13.1853L25.4088 12.3302L25.4028 12.3338L25.9273 13.1853ZM30.5373 12.0697L30.4916 13.0688L30.5056 13.0692L30.5373 12.0697ZM15.552 36.7985L14.5952 37.0894L14.6 37.1053L14.6054 37.121L15.552 36.7985ZM18.5368 31.6285L18.3258 30.6511L18.3181 30.6527L18.3103 30.6545L18.5368 31.6285ZM24.415 35.0223L23.4583 35.3132L23.4606 35.3207L23.463 35.3283L24.415 35.0223ZM21.4506 40.1569L21.2395 39.1794L21.2318 39.1811L21.2241 39.1829L21.4506 40.1569ZM35.5374 14.6948C37.9601 16.0935 39.4518 17.781 40.1478 19.7264L42.0309 19.0527C41.1373 16.5549 39.261 14.5352 36.5374 12.9627L35.5374 14.6948ZM40.1478 19.7264C40.8237 21.6155 40.5925 23.6474 39.2893 25.9046L41.0214 26.9046C42.5532 24.2515 42.9447 21.6066 42.0309 19.0527L40.1478 19.7264ZM39.2893 25.9046C38.1734 27.8374 36.7012 28.9177 34.8607 29.275L35.2419 31.2383C37.7263 30.756 39.6567 29.2683 41.0214 26.9046L39.2893 25.9046ZM34.8527 29.2766C32.9973 29.6525 30.9867 29.2935 28.779 28.0776L27.8141 29.8295C30.3352 31.2179 32.8278 31.7275 35.2499 31.2367L34.8527 29.2766ZM27.4667 28.3956L25.7972 30.8783L27.4569 31.9943L29.1264 29.5116L27.4667 28.3956ZM27.1271 30.5703L21.001 27.0334L20.001 28.7655L26.1271 32.3024L27.1271 30.5703ZM21.3817 28.3731L25.2377 21.2037L23.4763 20.2564L19.6203 27.4258L21.3817 28.3731ZM23.857 21.5961L26.4065 23.0681L27.4065 21.336L24.857 19.864L23.857 21.5961ZM26.4065 23.0681C28.0538 24.0191 29.5191 24.6271 30.7675 24.7888L31.0244 22.8054C30.1641 22.6939 28.9699 22.2386 27.4065 21.336L26.4065 23.0681ZM30.7907 24.7915C31.4825 24.8647 32.1534 24.7715 32.7599 24.459C33.3653 24.1469 33.8327 23.6544 34.1816 23.0501L32.4496 22.0501C32.2533 22.39 32.0448 22.5775 31.8437 22.6812C31.6436 22.7843 31.3773 22.8424 31.0011 22.8026L30.7907 24.7915ZM34.1816 23.0501C34.6443 22.2488 34.8448 21.3771 34.609 20.4973L32.6772 21.015C32.7408 21.2523 32.723 21.5766 32.4496 22.0501L34.1816 23.0501ZM34.6241 20.5622C34.4458 19.6602 33.8807 18.9832 33.0892 18.5262L32.0892 20.2583C32.478 20.4828 32.6156 20.715 32.6621 20.9502L34.6241 20.5622ZM33.0892 18.5262C32.2429 18.0376 31.3205 17.858 30.4004 18.1672L31.0375 20.063C31.2891 19.9785 31.6135 19.9836 32.0892 20.2583L33.0892 18.5262ZM30.3965 18.1686C29.5541 18.4555 28.9213 19.0839 28.4576 19.887L30.1897 20.887C30.4893 20.3681 30.7867 20.1485 31.0415 20.0617L30.3965 18.1686ZM29.8237 19.521L23.2727 15.7387L22.2727 17.4708L28.8237 21.253L29.8237 19.521ZM23.6546 17.0761C24.3618 15.753 25.2947 14.7494 26.4517 14.0367L25.4028 12.3338C23.9221 13.2459 22.752 14.522 21.8907 16.1334L23.6546 17.0761ZM26.4458 14.0403C27.6179 13.3296 28.9551 12.9983 30.4916 13.0687L30.5831 11.0708C28.685 10.9839 26.9488 11.3963 25.4088 12.3302L26.4458 14.0403ZM30.5056 13.0692C32.0308 13.1177 33.704 13.6363 35.5374 14.6948L36.5374 12.9627C34.4992 11.786 32.5057 11.1318 30.5691 11.0702L30.5056 13.0692ZM18.454 38.6413C17.3874 38.0255 16.7778 37.2957 16.4985 36.476L14.6054 37.121C15.0737 38.4957 16.0654 39.5717 17.454 40.3734L18.454 38.6413ZM16.5087 36.5077C16.2559 35.6761 16.3457 34.8886 16.8127 34.0798L15.0806 33.0798C14.3482 34.3483 14.1749 35.7067 14.5952 37.0894L16.5087 36.5077ZM16.8127 34.0798C17.2797 33.2709 17.9168 32.7994 18.7633 32.6026L18.3103 30.6545C16.9028 30.9818 15.813 31.8112 15.0806 33.0798L16.8127 34.0798ZM18.7479 32.606C19.6084 32.4202 20.5454 32.5737 21.6042 33.185L22.6042 31.4529C21.2079 30.6468 19.7667 30.3399 18.3258 30.6511L18.7479 32.606ZM21.6042 33.185C22.6354 33.7803 23.2099 34.496 23.4583 35.3132L25.3718 34.7315C24.9471 33.3344 23.981 32.2478 22.6042 31.4529L21.6042 33.185ZM23.463 35.3283C23.735 36.1746 23.6513 36.962 23.1897 37.7615L24.9218 38.7615C25.6596 37.4836 25.8155 36.1116 25.3671 34.7164L23.463 35.3283ZM23.1897 37.7615C22.7455 38.531 22.1157 38.9902 21.2395 39.1794L21.6617 41.1344C23.0869 40.8266 24.1939 40.0223 24.9218 38.7615L23.1897 37.7615ZM21.2241 39.1829C20.3922 39.3763 19.4852 39.2367 18.454 38.6413L17.454 40.3734C18.8308 41.1683 20.2548 41.4616 21.6771 41.1309L21.2241 39.1829Z" fill="url(#paint7_linear_66_4779)" mask="url(#path-6-inside-1_66_4779)"/>
<defs>
<filter id="filter0_i_66_4779" x="11.5801" y="8.73804" width="32.9912" height="39.1072" filterUnits="userSpaceOnUse" color-interpolation-filters="sRGB">
<feFlood flood-opacity="0" result="BackgroundImageFix"/>
<feBlend mode="normal" in="SourceGraphic" in2="BackgroundImageFix" result="shape"/>
<feColorMatrix in="SourceAlpha" type="matrix" values="0 0 0 0 0 0 0 0 0 0 0 0 0 0 0 0 0 0 127 0" result="hardAlpha"/>
<feOffset dy="2"/>
<feGaussianBlur stdDeviation="2"/>
<feComposite in2="hardAlpha" operator="arithmetic" k2="-1" k3="1"/>
<feColorMatrix type="matrix" values="0 0 0 0 0 0 0 0 0 0 0 0 0 0 0 0 0 0 0.55 0"/>
<feBlend mode="normal" in2="shape" result="effect1_innerShadow_66_4779"/>
</filter>
<linearGradient id="paint0_linear_66_4779" x1="28" y1="0" x2="28" y2="56" gradientUnits="userSpaceOnUse">
<stop stop-color="#FFE600"/>
<stop offset="1" stop-color="#FFE600"/>
</linearGradient>
<linearGradient id="paint1_linear_66_4779" x1="28" y1="2" x2="28" y2="54" gradientUnits="userSpaceOnUse">
<stop stop-color="#EE29FF"/>
<stop offset="1" stop-color="#461993"/>
</linearGradient>
<linearGradient id="paint2_linear_66_4779" x1="28" y1="2" x2="28" y2="54" gradientUnits="userSpaceOnUse">
<stop stop-color="#461993"/>
<stop offset="1" stop-color="#CC00FF"/>
</linearGradient>
<linearGradient id="paint3_linear_66_4779" x1="28" y1="5" x2="28" y2="24" gradientUnits="userSpaceOnUse">
<stop stop-color="white"/>
<stop offset="1" stop-color="white" stop-opacity="0"/>
</linearGradient>
<linearGradient id="paint4_linear_66_4779" x1="28" y1="5" x2="28" y2="24" gradientUnits="userSpaceOnUse">
<stop stop-color="white"/>
<stop offset="1" stop-color="white" stop-opacity="0"/>
</linearGradient>
<linearGradient id="paint5_linear_66_4779" x1="23" y1="0" x2="23" y2="8" gradientUnits="userSpaceOnUse">
<stop stop-color="white"/>
<stop offset="1" stop-color="white" stop-opacity="0"/>
</linearGradient>
<linearGradient id="paint6_linear_66_4779" x1="20.9593" y1="13" x2="20.9593" y2="45.5" gradientUnits="userSpaceOnUse">
<stop stop-color="#461993"/>
<stop offset="1" stop-color="#AD1DE0"/>
</linearGradient>
<linearGradient id="paint7_linear_66_4779" x1="20.9593" y1="13" x2="20.9593" y2="40.8647" gradientUnits="userSpaceOnUse">
<stop stop-color="#471993"/>
<stop offset="1" stop-color="#8800DD"/>
</linearGradient>
</defs>
</svg>
